<?xml version="1.0" encoding="UTF-8" standalone="no"?>
<!DOCTYPE svg PUBLIC "-//W3C//DTD SVG 1.1//EN" "http://www.w3.org/Graphics/SVG/1.1/DTD/svg11.dtd">
<svg version="1.1" xmlns="http://www.w3.org/2000/svg" xmlns:xlink="http://www.w3.org/1999/xlink" preserveAspectRatio="xMidYMid meet" viewBox="0 0 100 100" width="100" height="100"><defs><path d="M39.81 24.18L40.95 24.72L42.01 25.45L42.97 26.38L43.85 27.52L44.32 28.35L43.34 27.79L41.98 27.19L40.49 26.8L38.88 26.62L37.16 26.65L35.31 26.88L33.33 27.32L31.24 27.97L29.03 28.82L33.64 28.82L35.03 28.86L36.4 28.97L37.77 29.17L39.12 29.43L40.45 29.78L41.76 30.19L43.05 30.68L44.32 31.25L45.73 31.93L46.02 33.83L45.73 35.67L44.91 37.13L43.65 38.26L42.02 39.07L40.11 39.61L38.02 39.9L35.83 39.98L33.63 39.89L31.51 39.65L29.54 39.29L27.83 38.86L26.46 38.38L25.67 38.06L24.89 37.76L24.1 37.49L23.31 37.23L22.52 36.99L21.73 36.78L20.93 36.58L20.14 36.41L19.34 36.25L18.55 36.12L17.75 36L16.95 35.91L16.14 35.84L15.34 35.79L15.81 35.12L16.32 34.45L16.89 33.79L17.51 33.13L18.17 32.48L18.89 31.83L19.66 31.18L20.48 30.54L21.35 29.91L22.27 29.27L23.24 28.65L24.26 28.02L25.34 27.4L26.46 26.79L28.16 25.93L29.82 25.19L31.43 24.59L32.98 24.12L34.48 23.81L35.92 23.65L37.29 23.65L38.58 23.82L38.58 23.82L39.81 24.18Z" id="bSCn2dn3Y"></path><path d="M68.57 24.59L70.18 25.19L71.84 25.93L73.54 26.79L74.66 27.4L75.74 28.02L76.76 28.65L77.73 29.27L78.65 29.91L79.52 30.54L80.34 31.18L81.11 31.83L81.83 32.48L82.49 33.13L83.11 33.79L83.68 34.45L84.19 35.12L84.66 35.79L83.86 35.84L83.05 35.91L82.25 36L81.45 36.12L80.66 36.25L79.86 36.41L79.07 36.58L78.27 36.78L77.48 36.99L76.69 37.23L75.9 37.49L75.11 37.76L74.33 38.06L73.54 38.38L72.17 38.86L70.46 39.29L68.49 39.65L66.37 39.89L64.17 39.98L61.98 39.9L59.89 39.61L57.98 39.07L56.35 38.26L55.09 37.13L54.27 35.67L53.98 33.83L54.27 31.93L55.68 31.25L56.95 30.68L58.24 30.19L59.55 29.78L60.88 29.43L62.23 29.17L63.6 28.97L64.97 28.86L66.36 28.82L70.97 28.82L68.76 27.97L66.67 27.32L64.69 26.88L62.84 26.65L61.12 26.62L59.51 26.8L58.02 27.19L56.66 27.79L55.69 28.35L56.15 27.52L57.03 26.38L57.99 25.45L59.05 24.72L60.19 24.18L61.42 23.82L62.71 23.65L64.08 23.65L65.52 23.81L67.02 24.12L67.02 24.12L68.57 24.59Z" id="az2LUtxv"></path><path d="M41.58 71.09L42.23 70.2L42.82 69.27L43.36 68.32L43.85 67.34L44.29 66.33L44.67 65.3L44.99 64.26L45.26 63.19L45.47 62.11L45.62 61.01L45.71 59.91L47.33 30.64L49.73 34.64L52.13 30.64L53.75 59.91L53.85 61.01L54 62.11L54.21 63.19L54.47 64.26L54.8 65.3L55.18 66.33L55.61 67.34L56.1 68.32L56.65 69.27L57.24 70.2L57.88 71.09L58.58 71.95L59.32 72.77L62.73 76.35L36.73 76.35L40.14 72.77L40.89 71.95L40.89 71.95L41.58 71.09Z" id="b4xshHTv0"></path></defs><g><g><g><use xlink:href="#bSCn2dn3Y" opacity="1" fill="#000000" fill-opacity="1"></use></g><g><use xlink:href="#az2LUtxv" opacity="1" fill="#000000" fill-opacity="1"></use></g><g><use xlink:href="#b4xshHTv0" opacity="1" fill="#000000" fill-opacity="1"></use></g></g></g></svg>