<?xml version="1.0" encoding="utf-8"?>
<!-- Generator: Adobe Illustrator 16.0.0, SVG Export Plug-In . SVG Version: 6.00 Build 0)  -->
<!DOCTYPE svg PUBLIC "-//W3C//DTD SVG 1.1//EN" "http://www.w3.org/Graphics/SVG/1.1/DTD/svg11.dtd">
<svg version="1.1" id="Layer_1" xmlns="http://www.w3.org/2000/svg" xmlns:xlink="http://www.w3.org/1999/xlink" x="0px" y="0px"
	 width="100px" height="100px" viewBox="0 0 100 100" enable-background="new 0 0 100 100" xml:space="preserve">
<g>
	<g>
		<g>
			<g>
				<g>
					<defs>
						<path id="SVGID_1_" d="M16.21,34.78h8.61h8.61c0,10.495,0,19.02,0,25.577s0,11.147,0,13.772c0,1.56-0.635,2.973-1.66,3.995
							s-2.44,1.655-4,1.655c-1.155,0-2.052,0-2.95,0s-1.795,0-2.95,0c-1.565,0-2.98-0.633-4.004-1.655
							c-1.023-1.022-1.656-2.436-1.656-3.995c0-2.625,0-7.215,0-13.772S16.21,45.275,16.21,34.78z"/>
					</defs>
					<clipPath id="SVGID_2_">
						<use xlink:href="#SVGID_1_"  overflow="visible"/>
					</clipPath>
					<g clip-path="url(#SVGID_2_)">
						<g>
							<g>
								<path id="dsmkreofx_1_" fill-opacity="0" d="M16.21,34.78h8.61h8.61c0,10.495,0,19.02,0,25.577s0,11.147,0,13.772
									c0,1.56-0.635,2.973-1.66,3.995s-2.44,1.655-4,1.655c-1.155,0-2.052,0-2.95,0s-1.795,0-2.95,0
									c-1.565,0-2.98-0.633-4.004-1.655c-1.023-1.022-1.656-2.436-1.656-3.995c0-2.625,0-7.215,0-13.772S16.21,45.275,16.21,34.78
									z"/>
								<path d="M27.77,82.78h-2.95h-2.95c-2.388,0-4.553-0.971-6.121-2.537c-1.568-1.566-2.54-3.729-2.54-6.113V52.955V31.78h11.61
									h11.61v21.175V74.13c0,2.384-0.971,4.547-2.54,6.113S30.157,82.78,27.77,82.78z M19.21,37.78v18.175V74.13
									c0,0.731,0.298,1.394,0.78,1.873c0.482,0.48,1.147,0.777,1.88,0.777h2.95h2.95c0.733,0,1.398-0.297,1.88-0.777
									c0.481-0.479,0.78-1.142,0.78-1.873V55.955V37.78h-5.61H19.21z"/>
							</g>
						</g>
					</g>
				</g>
			</g>
		</g>
		<g>
			<g>
				<path id="b2QoHErW1" d="M20.35,67.63h4.47h4.47c0,1.886,0,3.418,0,4.598s0,2.007,0,2.482c0,0.28-0.115,0.535-0.3,0.72
					c-0.185,0.186-0.44,0.301-0.72,0.301c-0.79,0-2.12,0-3.45,0c-1.33,0-2.66,0-3.45,0c-0.285,0-0.54-0.115-0.724-0.301
					c-0.184-0.185-0.296-0.439-0.296-0.72c0-0.476,0-1.303,0-2.482S20.35,69.516,20.35,67.63z"/>
			</g>
		</g>
		<g>
			<g>
				<path id="aB7k4VlD" d="M13.21,28.6h11.605H36.42v2.675v2.675H24.815H13.21v-2.675V28.6z"/>
			</g>
		</g>
		<g>
			<g>
				<path id="b2XJOD3fgk" d="M16.21,20.22h8.61h8.61V24v3.781h-8.61h-8.61V24V20.22z"/>
			</g>
		</g>
		<g>
			<g>
				<g>
					<defs>
						<path id="SVGID_3_" d="M41.41,34.78h8.605h8.605c0,10.495,0,19.02,0,25.577s0,11.147,0,13.772c0,1.56-0.633,2.973-1.655,3.995
							s-2.435,1.655-3.994,1.655c-1.16,0-2.061,0-2.959,0c-0.899,0-1.797,0-2.952,0c-1.56,0-2.973-0.633-3.995-1.655
							s-1.655-2.436-1.655-3.995c0-2.625,0-7.215,0-13.772S41.41,45.275,41.41,34.78z"/>
					</defs>
					<clipPath id="SVGID_4_">
						<use xlink:href="#SVGID_3_"  overflow="visible"/>
					</clipPath>
					<g clip-path="url(#SVGID_4_)">
						<g>
							<g>
								<path id="a17YA3rDbF_1_" fill-opacity="0" d="M41.41,34.78h8.605h8.605c0,10.495,0,19.02,0,25.577s0,11.147,0,13.772
									c0,1.56-0.633,2.973-1.655,3.995s-2.435,1.655-3.994,1.655c-1.16,0-2.061,0-2.959,0c-0.899,0-1.797,0-2.952,0
									c-1.56,0-2.973-0.633-3.995-1.655s-1.655-2.436-1.655-3.995c0-2.625,0-7.215,0-13.772S41.41,45.275,41.41,34.78z"/>
								<path d="M52.971,82.78h-2.955H47.06c-2.385,0-4.547-0.971-6.114-2.537s-2.536-3.729-2.536-6.113V52.955V31.78h11.605H61.62
									v21.175V74.13c0,2.384-0.97,4.547-2.536,6.113S55.355,82.78,52.971,82.78z M44.41,37.78v18.175V74.13
									c0,0.731,0.297,1.394,0.777,1.873c0.479,0.48,1.142,0.777,1.873,0.777h2.956h2.955c0.73,0,1.393-0.297,1.873-0.777
									c0.479-0.479,0.776-1.142,0.776-1.873V55.955V37.78h-5.605H44.41z"/>
							</g>
						</g>
					</g>
				</g>
			</g>
		</g>
		<g>
			<g>
				<path id="a1pX2LFuyA" d="M45.54,55.109h4.475h4.475c0,4.805,0,8.71,0,11.714s0,5.106,0,6.307c0,0.716-0.29,1.365-0.76,1.837
					c-0.471,0.471-1.12,0.764-1.84,0.764c-0.636,0-1.259,0-1.881,0s-1.246,0-1.88,0c-0.715,0-1.362-0.293-1.831-0.764
					c-0.469-0.472-0.759-1.121-0.759-1.837c0-1.2,0.001-3.302,0.001-6.306S45.54,59.914,45.54,55.109z"/>
			</g>
		</g>
		<g>
			<g>
				<path id="d459jq10yZ" d="M38.41,28.6h11.605H61.62v2.675v2.675H50.015H38.41v-2.675V28.6z"/>
			</g>
		</g>
		<g>
			<g>
				<path id="h1jC8J25vi" d="M41.41,20.22h8.605h8.605V24v3.781h-8.605H41.41V24V20.22z"/>
			</g>
		</g>
		<g>
			<g>
				<g>
					<defs>
						<path id="SVGID_5_" d="M66.57,34.78h8.609h8.61c0,10.495,0,19.02,0,25.577s0,11.147,0,13.772c0,1.56-0.633,2.973-1.656,3.995
							c-1.024,1.022-2.438,1.655-4.004,1.655c-1.155,0-2.052,0-2.95,0c-0.896,0-1.795,0-2.949,0c-1.561,0-2.976-0.633-4-1.655
							c-1.025-1.022-1.66-2.436-1.66-3.995c0-2.625,0-7.215,0-13.772S66.57,45.275,66.57,34.78z"/>
					</defs>
					<clipPath id="SVGID_6_">
						<use xlink:href="#SVGID_5_"  overflow="visible"/>
					</clipPath>
					<g clip-path="url(#SVGID_6_)">
						<g>
							<g>
								<path id="atHzd2fdO_1_" fill-opacity="0" d="M66.57,34.78h8.609h8.61c0,10.495,0,19.02,0,25.577s0,11.147,0,13.772
									c0,1.56-0.633,2.973-1.656,3.995c-1.024,1.022-2.438,1.655-4.004,1.655c-1.155,0-2.052,0-2.95,0c-0.896,0-1.795,0-2.949,0
									c-1.561,0-2.976-0.633-4-1.655c-1.025-1.022-1.66-2.436-1.66-3.995c0-2.625,0-7.215,0-13.772S66.57,45.275,66.57,34.78z"/>
								<path d="M78.13,82.78h-2.95H72.23c-2.388,0-4.553-0.971-6.121-2.537s-2.539-3.729-2.539-6.113V52.955V31.78H75.18h11.61
									v21.175V74.13c0,2.384-0.972,4.547-2.54,6.113S80.518,82.78,78.13,82.78z M69.57,37.78v18.175V74.13
									c0,0.731,0.299,1.394,0.78,1.873c0.481,0.48,1.146,0.777,1.88,0.777h2.949h2.949c0.733,0,1.398-0.297,1.88-0.777
									c0.481-0.479,0.78-1.142,0.78-1.873V55.955V37.78H75.18H69.57z"/>
							</g>
						</g>
					</g>
				</g>
			</g>
		</g>
		<g>
			<g>
				<path id="a1n1OO2TTz" d="M70.71,40.93h4.47h4.471c0,8.495,0,15.397,0,20.708c0,5.31,0,9.027,0,11.152
					c0,0.81-0.328,1.545-0.859,2.078C78.26,75.4,77.524,75.73,76.71,75.73c-0.601,0-1.065,0-1.53,0s-0.93,0-1.529,0
					c-0.815,0-1.551-0.33-2.082-0.862c-0.531-0.533-0.858-1.269-0.858-2.078c0-2.125,0-5.843,0-11.152
					C70.71,56.327,70.71,49.425,70.71,40.93z"/>
			</g>
		</g>
		<g>
			<g>
				<path id="blFVEp8G9" d="M63.58,28.6h11.605H86.79v2.675v2.675H75.186H63.58v-2.675V28.6z"/>
			</g>
		</g>
		<g>
			<g>
				<path id="cKlv9Gxe4" d="M66.57,20.22h8.609h8.61V24v3.781h-8.61H66.57V24V20.22z"/>
			</g>
		</g>
	</g>
</g>
</svg>
