<?xml version="1.0" encoding="utf-8"?>
<!-- Generator: Adobe Illustrator 16.0.0, SVG Export Plug-In . SVG Version: 6.00 Build 0)  -->
<!DOCTYPE svg PUBLIC "-//W3C//DTD SVG 1.1//EN" "http://www.w3.org/Graphics/SVG/1.1/DTD/svg11.dtd">
<svg version="1.1" id="Layer_1" xmlns="http://www.w3.org/2000/svg" xmlns:xlink="http://www.w3.org/1999/xlink" x="0px" y="0px"
	 width="100px" height="100px" viewBox="0 0 100 100" enable-background="new 0 0 100 100" xml:space="preserve">
<g>
	<g>
		<g>
			<g>
				<path id="e1H8LYRnew" fill-opacity="0" d="M62.859,22.75c0.451,0,0.811,0.36,0.811,0.81c0,10.92,0,42.85,0,53.76
					c0,0.449-0.359,0.81-0.811,0.81c-2.039,0-7.34,0-9.379,0c-0.44,0-0.811-0.36-0.811-0.81c0-10.91,0-42.84,0-53.76
					c0-0.45,0.37-0.81,0.811-0.81C55.52,22.75,60.82,22.75,62.859,22.75z"/>
			</g>
			<g>
				<g>
					<g>
						<path id="e1H8LYRnew_2_" fill-opacity="0" d="M62.859,22.75c0.451,0,0.811,0.36,0.811,0.81c0,10.92,0,42.85,0,53.76
							c0,0.449-0.359,0.81-0.811,0.81c-2.039,0-7.34,0-9.379,0c-0.44,0-0.811-0.36-0.811-0.81c0-10.91,0-42.84,0-53.76
							c0-0.45,0.37-0.81,0.811-0.81C55.52,22.75,60.82,22.75,62.859,22.75z"/>
						<path d="M62.859,79.13H53.48c-0.998,0-1.811-0.812-1.811-1.81V23.56c0-0.998,0.813-1.81,1.811-1.81h9.379
							c0.998,0,1.811,0.812,1.811,1.81v53.76C64.67,78.318,63.857,79.13,62.859,79.13z M53.67,77.13h9V23.75h-9V77.13z"/>
					</g>
				</g>
			</g>
		</g>
		<g>
			<g>
				<path id="a1vkHMMLPY" d="M18.23,79.13V21.75h6.2v8.3h-0.86V48.8H50.9V30.05H34.52v-8.3h23.509v57.38H18.23z M23.45,63.13h27.34
					v-5H23.45V63.13z M23.45,56.3h27.34v-5H23.45V56.3z"/>
			</g>
		</g>
		<g>
			<g>
				<g>
					<g>
						<path id="d1hiICWe2y_1_" fill-opacity="0" d="M32.82,37.61l-3.45-2.86l-3.44,2.86l-1.5,1.24V20.86h10.09v18.16L32.82,37.61z"
							/>
						<path d="M35.52,41.148l-6.149-5.099l-5.941,4.925V19.86h12.09V41.148z M29.369,33.45l4.151,3.441V21.86h-8.09v14.865
							L29.369,33.45z"/>
					</g>
				</g>
			</g>
		</g>
		<g>
			<g>
				<path id="c2KOifmirk" d="M79.01,21.78l0.19,0.03l0.19,0.04l0.18,0.06l0.18,0.06l0.18,0.07l0.17,0.09l0.16,0.09l0.15,0.1
					l0.15,0.11l0.149,0.12l0.13,0.13l0.131,0.14l0.119,0.14l0.11,0.15l0.1,0.16l0.101,0.16l0.08,0.17l0.069,0.17l0.07,0.18
					l0.05,0.18l0.04,0.19l0.03,0.2l0.02,0.19l0.01,0.2v51.31L81.76,76.4l-0.02,0.18l-0.02,0.18l-0.041,0.17l-0.05,0.18l-0.06,0.16
					l-0.07,0.16l-0.08,0.16l-0.08,0.15l-0.1,0.14l-0.1,0.14l-0.111,0.141l-0.119,0.12l-0.12,0.12l-0.14,0.109l-0.141,0.1
					l-0.14,0.101l-0.149,0.08l-0.16,0.08l-0.16,0.069L79.74,79l-0.17,0.05l-0.18,0.04l-0.181,0.02l-0.181,0.021l-0.18,0.011h-2.72
					l0,0H65.98l0.049-0.031l0.07-0.029l0.061-0.04l0.07-0.05l0.06-0.051l0.05-0.049L66.4,78.84l0.05-0.06l0.05-0.061l0.04-0.06
					l0.04-0.07l0.04-0.06l0.03-0.07l0.029-0.08l0.03-0.069l0.021-0.08l0.01-0.08l0.02-0.07v-0.09l0.01-0.08V22.58l-0.01-0.05v-0.05
					l-0.01-0.05l-0.01-0.05l-0.01-0.04l-0.01-0.05L66.7,22.25l-0.021-0.04l-0.029-0.04l-0.021-0.04l-0.03-0.04l-0.029-0.04
					l-0.03-0.03l-0.03-0.04l-0.039-0.03l-0.031-0.03L66.4,21.9l-0.041-0.03l-0.039-0.02l-0.041-0.02l-0.049-0.02l-0.041-0.01
					l-0.049-0.02l-0.051-0.01h-0.04L66,21.76h-0.05h12.659h0.201L79.01,21.78z M75.02,77.26h4.25V23.64h-4.25V77.26z"/>
			</g>
		</g>
	</g>
</g>
</svg>
