<?xml version="1.0" encoding="UTF-8" standalone="no"?>
<!DOCTYPE svg PUBLIC "-//W3C//DTD SVG 1.1//EN" "http://www.w3.org/Graphics/SVG/1.1/DTD/svg11.dtd">
<svg version="1.1" xmlns="http://www.w3.org/2000/svg" xmlns:xlink="http://www.w3.org/1999/xlink" preserveAspectRatio="xMidYMid meet" viewBox="0 0 100 100" width="100" height="100"><defs><path d="M44.44 22.29L44.68 22.31L44.91 22.33L45.15 22.35L45.39 22.38L45.62 22.41L45.85 22.45L46.09 22.49L46.32 22.54L46.55 22.6L46.78 22.66L47 22.72L47.23 22.79L47.45 22.86L47.67 22.94L47.9 23.03L48.11 23.11L48.33 23.21L48.55 23.3L48.76 23.41L48.97 23.51L49.18 23.63L49.38 23.74L49.59 23.86L49.79 23.99L49.99 24.12L50.19 24.26L50.38 24.4L50.57 24.54L50.73 24.67L50.89 24.8L51.05 24.94L51.2 25.08L51.35 25.23L51.5 25.38L51.64 25.53L51.78 25.68L51.91 25.84L52.04 26L52.17 26.16L52.29 26.33L52.41 26.5L52.52 26.67L52.63 26.85L52.73 27.03L52.83 27.21L52.93 27.39L53.02 27.58L53.1 27.76L53.19 27.95L53.26 28.15L53.34 28.34L53.4 28.53L53.47 28.73L53.53 28.93L53.58 29.13L53.63 29.34L53.67 29.54L53.71 29.75L57.11 49.25L57.18 49.69L57.24 50.14L57.29 50.59L57.33 51.04L57.35 51.49L57.37 51.94L57.38 52.39L57.37 52.84L57.35 53.28L57.33 53.73L57.29 54.18L57.24 54.62L57.18 55.06L57.11 55.5L57.02 55.94L56.93 56.38L56.83 56.81L56.71 57.25L56.59 57.68L56.46 58.1L56.31 58.52L56.15 58.94L55.99 59.36L55.81 59.77L55.62 60.18L55.43 60.59L55.22 60.99L55 61.38L54.77 61.77L54.53 62.16L52.4 65.51L52.27 65.71L52.14 65.91L52.01 66.11L51.88 66.31L51.75 66.5L51.61 66.7L51.47 66.89L51.34 67.09L51.2 67.28L51.06 67.47L50.91 67.66L50.77 67.85L50.62 68.04L50.48 68.22L50.33 68.41L50.18 68.6L50.03 68.78L49.88 68.96L49.73 69.14L49.57 69.32L49.41 69.5L49.26 69.68L49.1 69.86L48.94 70.03L48.78 70.21L48.62 70.38L48.45 70.55L48.29 70.73L48.12 70.9L47.95 71.06L47.85 71.16L47.75 71.26L47.64 71.36L47.53 71.45L47.42 71.54L47.31 71.63L47.2 71.71L47.09 71.79L46.97 71.87L46.85 71.95L46.73 72.03L46.61 72.1L46.49 72.17L46.37 72.24L46.24 72.3L46.12 72.36L45.99 72.42L45.86 72.48L45.73 72.53L45.6 72.58L45.46 72.63L45.33 72.68L45.2 72.72L45.06 72.76L44.92 72.8L44.79 72.83L44.65 72.86L44.51 72.89L44.37 72.91L44.23 72.94L40.37 73.5L40.21 73.53L40.04 73.55L39.88 73.56L39.72 73.57L39.56 73.58L39.4 73.59L39.24 73.59L39.08 73.59L38.91 73.59L38.75 73.59L38.59 73.58L38.43 73.56L38.27 73.55L38.11 73.53L37.95 73.51L37.79 73.49L37.63 73.46L37.47 73.43L37.32 73.4L37.16 73.36L37 73.32L36.85 73.28L36.69 73.23L36.54 73.18L36.39 73.13L36.23 73.08L36.08 73.02L35.93 72.96L35.78 72.9L35.63 72.83L35.47 72.76L35.3 72.68L35.14 72.6L34.98 72.52L34.81 72.44L34.65 72.36L34.49 72.28L34.33 72.19L34.17 72.11L34.01 72.02L33.85 71.94L33.69 71.85L33.54 71.76L33.38 71.67L33.22 71.58L33.07 71.48L32.91 71.39L32.76 71.3L32.6 71.2L32.45 71.1L32.3 71.01L32.15 70.91L32 70.81L31.85 70.71L31.7 70.6L31.55 70.5L31.4 70.4L31.25 70.29L31.1 70.18L30.96 70.08L26.69 66.91L26.36 66.66L26.04 66.41L25.73 66.15L25.43 65.88L25.13 65.6L24.84 65.32L24.56 65.02L24.29 64.73L24.03 64.42L23.77 64.11L23.52 63.8L23.28 63.48L23.04 63.15L22.82 62.81L22.6 62.47L22.4 62.13L22.2 61.78L22.01 61.43L21.82 61.07L21.65 60.7L21.49 60.33L21.33 59.96L21.19 59.58L21.05 59.2L20.93 58.82L20.81 58.43L20.7 58.04L20.61 57.64L20.52 57.24L20.44 56.84L16.84 36.74L16.8 36.49L16.77 36.24L16.74 35.99L16.72 35.74L16.7 35.49L16.69 35.24L16.68 34.99L16.68 34.74L16.69 34.49L16.71 34.24L16.73 33.99L16.75 33.74L16.78 33.49L16.82 33.25L16.86 33L16.91 32.76L16.97 32.52L17.03 32.27L17.1 32.03L17.17 31.8L17.25 31.56L17.33 31.32L17.42 31.09L17.52 30.86L17.62 30.63L17.73 30.4L17.84 30.18L17.96 29.96L18.09 29.74L18.22 29.52L18.31 29.37L18.41 29.22L18.51 29.08L18.61 28.94L18.72 28.8L18.83 28.66L18.94 28.53L19.06 28.4L19.18 28.27L19.3 28.14L19.42 28.02L19.55 27.9L19.67 27.78L19.81 27.66L19.94 27.55L20.07 27.44L20.21 27.34L20.35 27.23L20.5 27.14L20.64 27.04L20.79 26.94L20.94 26.85L21.09 26.77L21.24 26.68L21.4 26.6L21.56 26.53L21.72 26.45L21.88 26.38L22.04 26.32L22.21 26.25L22.53 26.13L23.22 25.88L23.91 25.64L24.6 25.41L25.29 25.18L25.99 24.96L26.69 24.75L27.39 24.55L28.1 24.36L28.8 24.18L29.51 24L30.22 23.84L30.93 23.68L31.64 23.53L32.36 23.39L33.07 23.25L33.79 23.13L34.51 23.01L35.23 22.91L35.95 22.81L36.68 22.72L37.4 22.63L38.13 22.56L38.85 22.5L39.58 22.44L40.31 22.39L41.04 22.35L41.77 22.32L42.5 22.3L43.23 22.29L43.96 22.28L44.2 22.29L44.44 22.29ZM51.83 53.96L45.98 56.36L44.82 56.81L43.64 57.21L42.46 57.57L41.26 57.87L40.05 58.13L38.83 58.34L37.61 58.5L36.38 58.6L35.14 58.67L33.91 58.68L32.67 58.64L31.43 58.55L30.19 58.41L27.09 58L26.96 57.99L26.83 58.01L26.72 58.05L26.61 58.11L26.52 58.19L26.45 58.28L26.38 58.38L26.34 58.49L26.32 58.61L26.32 58.73L26.33 58.85L26.38 58.97L26.45 59.08L28.16 61.44L28.62 62.05L29.12 62.62L29.64 63.16L30.19 63.67L30.77 64.15L31.38 64.59L32.01 65L32.66 65.37L33.33 65.7L34.03 66L34.73 66.26L35.46 66.47L36.2 66.65L36.87 66.77L37.55 66.85L38.22 66.9L38.9 66.91L39.58 66.89L40.25 66.83L40.92 66.74L41.58 66.61L42.23 66.44L42.88 66.24L43.52 66.01L44.14 65.74L44.75 65.43L45.47 65.02L46.16 64.58L46.82 64.1L47.45 63.58L48.05 63.02L48.62 62.44L49.15 61.82L49.65 61.18L50.11 60.5L50.53 59.81L50.91 59.08L51.25 58.33L51.55 57.56L52.58 54.68L52.61 54.57L52.61 54.47L52.6 54.37L52.57 54.27L52.53 54.19L52.47 54.11L52.4 54.04L52.32 53.99L52.23 53.95L52.13 53.92L52.03 53.91L51.93 53.93L51.83 53.96ZM27.05 45.68L26.27 45.9L25.52 46.23L24.83 46.63L24.2 47.11L23.62 47.65L23.11 48.26L22.67 48.92L22.3 49.63L21.82 50.7L24.19 49.91L25.38 49.57L26.61 49.35L27.84 49.24L29.08 49.25L30.31 49.38L31.53 49.62L34.9 50.45L34.33 49.39L33.85 48.61L33.28 47.9L32.63 47.27L31.91 46.72L31.13 46.27L30.28 45.91L30.26 45.9L29.47 45.68L28.66 45.57L27.85 45.57L27.05 45.68ZM46.22 42.35L45.47 42.65L44.76 43.05L44.11 43.54L44.09 43.56L43.43 44.2L42.87 44.92L42.4 45.69L42.03 46.52L41.76 47.38L41.6 48.29L41.46 49.48L44.28 47.47L45.33 46.8L46.44 46.23L47.58 45.77L48.77 45.41L49.99 45.17L51.23 45.05L53.72 44.92L52.88 44.09L52.28 43.57L51.62 43.12L50.93 42.74L50.19 42.45L49.43 42.24L48.64 42.11L47.82 42.08L47.01 42.16L46.22 42.35Z" id="c28o78uhh0"></path><path d="M67.73 18.2C68.92 21.79 69.66 24.04 69.96 24.94C70.44 26.41 71.62 27.55 73.1 28C73.93 28.25 76 28.87 79.32 29.87C76 30.86 73.93 31.49 73.1 31.74C71.62 32.18 70.45 33.33 69.96 34.8C69.67 35.71 68.92 37.98 67.73 41.62C66.65 37.99 65.97 35.73 65.69 34.82C65.25 33.34 64.09 32.19 62.61 31.76C61.83 31.53 59.87 30.95 56.73 30.03C59.88 28.98 61.85 28.33 62.64 28.07C64.11 27.58 65.25 26.4 65.7 24.92C65.97 24.02 66.65 21.78 67.73 18.2Z" id="a3wFJwqz1U"></path><path d="M82.59 37.06C81.83 38.57 81.35 39.52 81.16 39.9C80.85 40.52 80.86 41.25 81.19 41.87C81.37 42.21 81.83 43.06 82.56 44.43C81.2 43.69 80.34 43.24 80 43.05C79.39 42.72 78.65 42.71 78.03 43.03C77.65 43.22 76.7 43.71 75.17 44.48C75.97 42.99 76.47 42.05 76.68 41.68C77 41.07 77 40.34 76.67 39.73C76.49 39.41 76.05 38.61 75.35 37.32C76.68 37.99 77.51 38.4 77.85 38.57C78.47 38.88 79.2 38.87 79.82 38.54C80.19 38.34 81.11 37.85 82.59 37.06Z" id="b1bV2HFdUc"></path><path d="M69.02 73.59C69.02 78.12 65.35 81.8 60.82 81.8C56.29 81.8 52.61 78.12 52.61 73.59C52.61 69.07 56.29 65.39 60.82 65.39C65.35 65.39 69.02 69.07 69.02 73.59Z" id="a1OMo6rIJn"></path><path d="M64.57 46.04L65.57 44.33L83.32 54.83L82.57 56.16C81.79 56.3 81.3 56.39 81.11 56.42C78.08 56.95 75.35 58.58 73.44 61C72.82 61.79 71.26 63.76 68.77 66.91C68.7 66.83 68.65 66.77 68.63 66.75C67.08 64.97 64.98 63.75 62.65 63.28C62.63 63.28 62.57 63.27 62.48 63.25C63.76 59.79 64.55 57.64 64.87 56.77C65.97 53.79 66.03 50.52 65.04 47.5C64.98 47.3 64.82 46.82 64.57 46.04Z" id="b3M6PqIlM5"></path></defs><g><g><g><use xlink:href="#c28o78uhh0" opacity="1" fill="#000000" fill-opacity="1"></use></g><g><use xlink:href="#a3wFJwqz1U" opacity="1" fill="#000000" fill-opacity="1"></use></g><g><use xlink:href="#b1bV2HFdUc" opacity="1" fill="#000000" fill-opacity="1"></use></g><g><use xlink:href="#a1OMo6rIJn" opacity="1" fill="#000000" fill-opacity="1"></use></g><g><use xlink:href="#b3M6PqIlM5" opacity="1" fill="#000000" fill-opacity="1"></use></g></g></g></svg>