<?xml version="1.0" encoding="UTF-8" standalone="no"?>
<!DOCTYPE svg PUBLIC "-//W3C//DTD SVG 1.1//EN" "http://www.w3.org/Graphics/SVG/1.1/DTD/svg11.dtd">
<svg version="1.1" xmlns="http://www.w3.org/2000/svg" xmlns:xlink="http://www.w3.org/1999/xlink" preserveAspectRatio="xMidYMid meet" viewBox="0 0 100 100" width="100" height="100"><defs><path d="M39.83 24.16L39.66 24.5L39.51 24.84L39.37 25.18L39.24 25.53L39.12 25.88L39.02 26.23L38.93 26.59L38.85 26.95L38.79 27.31L38.74 27.67L38.7 28.03L38.67 28.39L38.66 28.76L38.66 29.12L38.68 29.48L38.7 29.85L38.74 30.21L38.8 30.57L38.86 30.92L38.94 31.28L39.03 31.63L39.13 31.98L39.25 32.33L39.38 32.67L39.52 33.01L39.67 33.34L39.84 33.67L40.02 34L40.21 34.32L40.41 34.63L40.63 34.94L40.86 35.24L41.47 36.02L41.64 36.23L41.82 36.45L42 36.66L42.17 36.88L42.35 37.09L42.54 37.3L42.72 37.51L42.9 37.71L43.09 37.92L43.28 38.12L43.47 38.32L43.66 38.53L43.85 38.72L44.05 38.92L44.24 39.12L44.44 39.31L44.64 39.5L44.84 39.7L45.04 39.88L45.25 40.07L45.45 40.26L45.66 40.44L45.87 40.63L46.08 40.81L46.29 40.99L46.5 41.16L46.72 41.34L46.93 41.51L47.15 41.69L47.37 41.86L47.59 42.03L47.81 42.19L48.04 42.36L48.46 42.67L48.89 42.98L49.33 43.3L49.77 43.62L50.22 43.94L50.68 44.26L51.14 44.59L51.61 44.92L52.08 45.25L52.57 45.58L53.05 45.92L53.55 46.26L54.05 46.6L54.56 46.94L55.07 47.29L55.59 47.64L56.12 47.99L56.65 48.34L57.19 48.7L57.74 49.06L58.29 49.42L58.85 49.79L59.1 49.95L59.13 49.95L59.24 50.04L59.25 50.05L59.25 50.05L59.44 50.2L60.15 50.76L60.84 51.33L61.5 51.9L62.14 52.47L62.77 53.04L63.37 53.61L63.95 54.18L64.51 54.76L65.04 55.33L65.56 55.91L66.06 56.49L66.53 57.07L66.98 57.65L67.42 58.23L67.83 58.82L68.22 59.4L68.59 59.99L68.94 60.58L69.26 61.17L69.57 61.76L69.85 62.35L70.12 62.94L70.36 63.53L70.58 64.12L70.78 64.7L70.95 65.28L71.11 65.85L71.24 66.41L71.35 66.97L71.44 67.52L71.51 68.07L71.56 68.61L71.58 69.15L71.58 69.68L71.56 70.2L71.52 70.72L71.45 71.24L71.37 71.75L71.26 72.25L71.13 72.75L70.98 73.24L70.81 73.73L70.61 74.21L70.4 74.69L70.16 75.16L69.9 75.62L69.61 76.08L69.31 76.54L68.98 76.99L68.64 77.43L68.27 77.87L67.87 78.3L67.46 78.73L67.02 79.15L66.57 79.57L58.49 79.57L60.44 76.17L60.62 75.84L60.79 75.5L60.95 75.16L61.09 74.82L61.22 74.47L61.33 74.12L61.44 73.77L61.53 73.41L61.6 73.05L61.67 72.69L61.72 72.33L61.76 71.97L61.78 71.61L61.79 71.24L61.79 70.88L61.78 70.52L61.75 70.15L61.71 69.79L61.66 69.43L61.59 69.08L61.52 68.72L61.43 68.37L61.32 68.02L61.21 67.67L61.08 67.33L60.94 66.99L60.78 66.66L60.62 66.33L60.44 66L60.25 65.68L60.04 65.37L59.83 65.06L59.6 64.76L58.98 63.98L58.81 63.77L58.64 63.55L58.46 63.34L58.28 63.12L58.1 62.91L57.92 62.7L57.74 62.49L57.55 62.29L57.36 62.08L57.18 61.88L56.99 61.68L56.79 61.47L56.6 61.28L56.41 61.08L56.21 60.88L56.01 60.69L55.81 60.5L55.61 60.3L55.41 60.12L55.21 59.93L55 59.74L54.79 59.56L54.59 59.37L54.37 59.19L54.16 59.01L53.95 58.84L53.74 58.66L53.52 58.49L53.3 58.31L53.08 58.14L52.86 57.97L52.64 57.81L52.42 57.64L51.99 57.33L51.56 57.02L51.13 56.7L50.68 56.38L50.23 56.06L49.78 55.74L49.32 55.41L48.85 55.08L48.37 54.75L47.89 54.42L47.4 54.08L46.91 53.74L46.41 53.4L45.9 53.06L45.38 52.71L44.86 52.36L44.34 52.01L43.8 51.66L43.26 51.3L42.72 50.94L42.17 50.58L41.61 50.21L41.35 50.05L41.33 50.05L41.22 49.96L41.2 49.95L41.21 49.95L41.01 49.8L40.3 49.24L39.62 48.67L38.95 48.1L38.31 47.53L37.69 46.96L37.09 46.39L36.51 45.82L35.95 45.24L35.41 44.67L34.89 44.09L34.4 43.51L33.92 42.93L33.47 42.35L33.04 41.77L32.63 41.18L32.24 40.6L31.87 40.01L31.52 39.42L31.19 38.83L30.89 38.24L30.6 37.65L30.34 37.06L30.09 36.47L29.87 35.88L29.68 35.3L29.5 34.72L29.34 34.15L29.21 33.59L29.1 33.03L29.01 32.48L28.94 31.93L28.9 31.39L28.88 30.85L28.87 30.32L28.89 29.8L28.94 29.28L29 28.76L29.09 28.25L29.19 27.75L29.32 27.25L29.47 26.76L29.65 26.27L29.84 25.79L30.06 25.31L30.3 24.84L30.56 24.38L30.84 23.92L31.14 23.46L31.47 23.01L31.82 22.57L32.19 22.13L32.58 21.7L32.99 21.27L33.43 20.85L33.89 20.43L41.97 20.43L40.01 23.83L39.83 24.16Z" id="a1pn5NjYRC"></path><path d="M42.48 25.14L63.99 25.14L63.99 32.71L42.48 32.71C42.1 32.24 41.87 31.94 41.77 31.82C40.37 30.07 40.41 27.56 41.87 25.86C41.95 25.76 42.16 25.53 42.48 25.14Z" id="biwG6kSd3"></path><path d="M46.11 37.24L64.02 37.24L64.02 42.59L51.68 42.59C50.66 41.75 50.01 41.23 49.76 41.02C48.87 40.3 48.04 39.49 47.3 38.62C47.14 38.44 46.74 37.98 46.11 37.24Z" id="c1dToLeQ2G"></path><path d="M39.95 51.78L40.57 52.2L41.19 52.61L41.8 53.02L42.41 53.43L43 53.83L43.6 54.24L44.18 54.64L44.76 55.04L45.34 55.43L45.9 55.82L46.46 56.21L47.02 56.6L47.57 56.99L48.03 57.31L48.01 57.33L47.58 57.64L47.36 57.81L47.14 57.97L46.92 58.14L46.7 58.31L46.48 58.49L46.26 58.66L46.05 58.84L45.84 59.01L45.63 59.19L45.41 59.37L45.21 59.56L45 59.74L44.79 59.93L44.59 60.12L44.39 60.3L44.19 60.5L43.99 60.69L43.79 60.88L43.59 61.08L43.4 61.28L43.21 61.47L43.01 61.68L42.82 61.88L42.64 62.08L42.45 62.29L42.26 62.49L42.08 62.7L41.9 62.91L41.72 63.12L41.54 63.34L41.36 63.55L41.19 63.77L41.02 63.98L40.4 64.76L40.17 65.06L39.96 65.37L39.75 65.68L39.56 66L39.38 66.33L39.22 66.66L39.06 66.99L38.92 67.33L38.79 67.67L38.68 68.02L38.57 68.37L38.48 68.72L38.41 69.08L38.34 69.43L38.29 69.79L38.25 70.15L38.22 70.52L38.21 70.88L38.21 71.24L38.22 71.61L38.24 71.97L38.28 72.33L38.33 72.69L38.4 73.05L38.47 73.41L38.56 73.77L38.67 74.12L38.78 74.47L38.91 74.82L39.05 75.16L39.21 75.5L39.38 75.84L39.56 76.17L41.51 79.57L33.43 79.57L32.98 79.15L32.54 78.73L32.13 78.3L31.73 77.87L31.36 77.43L31.02 76.99L30.69 76.54L30.39 76.08L30.1 75.62L29.84 75.16L29.6 74.69L29.39 74.21L29.19 73.73L29.02 73.24L28.87 72.75L28.74 72.25L28.63 71.75L28.55 71.24L28.48 70.72L28.44 70.2L28.42 69.68L28.42 69.15L28.44 68.61L28.49 68.07L28.56 67.52L28.65 66.97L28.76 66.41L28.89 65.85L29.05 65.28L29.22 64.7L29.42 64.12L29.64 63.53L29.88 62.94L30.15 62.35L30.43 61.76L30.74 61.17L31.06 60.58L31.41 59.99L31.78 59.4L32.17 58.82L32.58 58.23L33.02 57.65L33.47 57.07L33.94 56.49L34.44 55.91L34.96 55.33L35.49 54.76L36.05 54.18L36.63 53.61L37.23 53.04L37.86 52.47L38.5 51.9L39.16 51.33L39.21 51.29L39.32 51.36L39.95 51.78ZM67.01 21.27L67.42 21.7L67.81 22.13L68.18 22.57L68.53 23.01L68.86 23.46L69.16 23.92L69.44 24.38L69.7 24.84L69.94 25.31L70.16 25.79L70.35 26.27L70.53 26.76L70.68 27.25L70.81 27.75L70.91 28.25L71 28.76L71.06 29.28L71.11 29.8L71.13 30.32L71.12 30.85L71.1 31.39L71.06 31.93L70.99 32.48L70.9 33.03L70.79 33.59L70.66 34.15L70.5 34.72L70.32 35.3L70.13 35.88L69.91 36.47L69.66 37.06L69.4 37.65L69.11 38.24L68.81 38.83L68.48 39.42L68.13 40.01L67.76 40.6L67.37 41.18L66.96 41.77L66.53 42.35L66.08 42.93L65.6 43.51L65.11 44.09L64.59 44.67L64.05 45.24L63.49 45.82L62.91 46.39L62.31 46.96L61.69 47.53L61.05 48.1L60.54 48.53L60.47 48.48L59.81 48.06L59.17 47.63L58.52 47.21L57.89 46.79L57.26 46.37L56.64 45.95L56.02 45.54L55.41 45.13L54.8 44.72L54.2 44.32L53.61 43.91L53.03 43.51L52.45 43.12L51.87 42.72L51.67 42.58L51.96 42.36L52.19 42.19L52.41 42.03L52.63 41.86L52.85 41.69L53.07 41.51L53.28 41.34L53.5 41.16L53.71 40.99L53.92 40.81L54.13 40.63L54.34 40.44L54.55 40.26L54.75 40.07L54.96 39.88L55.16 39.7L55.36 39.5L55.56 39.31L55.76 39.12L55.95 38.92L56.15 38.72L56.34 38.53L56.53 38.32L56.72 38.12L56.91 37.92L57.1 37.71L57.28 37.51L57.46 37.3L57.65 37.09L57.83 36.88L58 36.66L58.18 36.45L58.36 36.23L58.53 36.02L59.14 35.24L59.37 34.94L59.59 34.63L59.79 34.32L59.98 34L60.16 33.67L60.33 33.34L60.48 33.01L60.62 32.67L60.75 32.33L60.87 31.98L60.97 31.63L61.06 31.28L61.14 30.92L61.2 30.57L61.26 30.21L61.3 29.85L61.32 29.48L61.34 29.12L61.34 28.76L61.33 28.39L61.3 28.03L61.26 27.67L61.21 27.31L61.15 26.95L61.07 26.59L60.98 26.23L60.88 25.88L60.76 25.53L60.63 25.18L60.49 24.84L60.34 24.5L60.17 24.16L59.99 23.83L58.03 20.43L66.11 20.43L66.57 20.85L67.01 21.27Z" id="b1QE6uFIsp"></path><path d="M57.22 74.78L35.71 74.78L35.71 67.21L57.22 67.21C57.6 67.68 57.84 67.98 57.93 68.1C59.34 69.85 59.3 72.36 57.84 74.06C57.75 74.16 57.55 74.4 57.22 74.78Z" id="dMHYZsn4E"></path><path d="M53.47 62.57L35.56 62.57L35.56 57.22L47.9 57.22C48.92 58.06 49.57 58.58 49.82 58.79C50.71 59.51 51.54 60.32 52.28 61.19C52.44 61.37 52.84 61.83 53.47 62.57Z" id="dW1cOByS"></path></defs><g><g><g><use xlink:href="#a1pn5NjYRC" opacity="1" fill="#000000" fill-opacity="1"></use></g><g><use xlink:href="#biwG6kSd3" opacity="1" fill="#000000" fill-opacity="1"></use></g><g><use xlink:href="#c1dToLeQ2G" opacity="1" fill="#000000" fill-opacity="1"></use></g><g><use xlink:href="#b1QE6uFIsp" opacity="1" fill="#000000" fill-opacity="1"></use></g><g><use xlink:href="#dMHYZsn4E" opacity="1" fill="#000000" fill-opacity="1"></use></g><g><use xlink:href="#dW1cOByS" opacity="1" fill="#000000" fill-opacity="1"></use></g></g></g></svg>