<?xml version="1.0" encoding="UTF-8" standalone="no"?>
<!DOCTYPE svg PUBLIC "-//W3C//DTD SVG 1.1//EN" "http://www.w3.org/Graphics/SVG/1.1/DTD/svg11.dtd">
<svg version="1.1" xmlns="http://www.w3.org/2000/svg" xmlns:xlink="http://www.w3.org/1999/xlink" preserveAspectRatio="xMidYMid meet" viewBox="0 0 100 100" width="100" height="100"><defs><path d="M40.15 16.7L59.27 22.3L57.01 27.9L50.66 30.1L39.05 24.3L37.07 20.5L40.15 16.7Z" id="b2UiXdAYaN"></path><path d="M66.66 27.85L65.25 30.6L59.91 29.35L62 24.18L66.66 27.85Z" id="a1cJiXiLgF"></path><path d="M58.16 35.35L59.91 41.26L58.16 42.01L53 36.85L51.83 32.01L58.16 30.1L58.16 35.35Z" id="a5kzFYCPx"></path><path d="M38.83 32.6L47.41 36.35L50 31.43L41.25 27.39L38.83 32.6Z" id="e3iEmt8v1"></path><path d="M33.08 37.6L48.17 44.51L50 39.1L35.16 32.35L33.08 37.6Z" id="a7SAtQ4A8"></path><path d="M44.31 77.75L44.26 78.29L44.17 78.81L44.03 79.31L43.85 79.78L43.64 80.24L43.38 80.66L43.1 81.06L42.78 81.44L42.43 81.78L42.06 82.09L41.66 82.37L41.24 82.62L40.81 82.83L40.35 83L39.88 83.14L39.4 83.23L38.91 83.29L38.42 83.3L37.92 83.27L37.41 83.2L36.91 83.08L36.41 82.91L35.92 82.69L18.29 73.88L17.84 73.64L17.42 73.36L17.03 73.06L16.66 72.73L16.32 72.38L16.02 72L15.74 71.61L15.49 71.2L15.28 70.77L15.1 70.34L14.94 69.89L14.83 69.43L14.74 68.96L14.69 68.49L14.68 68.01L14.69 67.53L14.75 67.05L14.84 66.58L14.96 66.11L15.13 65.64L15.33 65.19L15.56 64.74L15.84 64.31L33.08 39.43L45.75 45.6L44.31 77.75ZM19.61 65.85L19.45 66.21L19.32 66.58L19.24 66.96L19.19 67.34L19.18 67.72L19.21 68.1L19.27 68.47L19.37 68.83L19.51 69.18L19.68 69.52L19.89 69.84L20.12 70.14L20.39 70.42L20.69 70.67L21.02 70.9L21.38 71.09L36.31 78.12L36.67 78.26L37.03 78.36L37.39 78.41L37.75 78.42L38.11 78.38L38.45 78.31L38.78 78.2L39.1 78.05L39.4 77.87L39.68 77.66L39.93 77.42L40.16 77.15L40.36 76.85L40.52 76.53L40.64 76.19L40.73 75.82L40.77 75.44L42.05 49.92L33.08 45.6L19.82 65.5L19.61 65.85Z" id="d3cektq84l"></path><path d="M24.83 62.85L38.25 62.85L37.91 76.1L21.33 67.93L24.83 62.85Z" id="dfAelE2Qn"></path><path d="M68.57 78.13L50.66 78.96L50.69 78.41L50.73 77.85L50.78 77.29L50.84 76.73L50.92 76.16L51 75.58L51.1 75L51.21 74.42L51.26 74.18L66.07 73.21L71.76 59.65L74.68 64.95L68.57 78.13ZM69.51 42.94L70.18 43.09L70.82 43.3L71.25 43.47L71.68 43.67L72.11 43.9L72.54 44.16L72.97 44.45L73.41 44.77L73.84 45.11L74.28 45.48L74.73 45.89L75.17 46.32L75.62 46.78L76.06 47.26L76.51 47.78L76.97 48.33L77.42 48.9L77.88 49.5L78.34 50.13L78.8 50.79L79.26 51.48L79.72 52.2L80.19 52.94L80.54 53.52L72.06 55.46L67.41 51.73L70 56.44L63.91 70.21L52.18 70.67L52.32 70.22L52.52 69.61L52.74 68.99L52.96 68.36L53.2 67.73L53.45 67.1L53.72 66.46L53.99 65.82L54.4 64.87L54.78 63.94L55.13 63.05L55.46 62.18L55.77 61.33L56.06 60.51L56.32 59.71L56.57 58.92L56.8 58.16L57.01 57.41L57.21 56.68L57.39 55.97L57.56 55.26L57.72 54.57L57.87 53.89L58.01 53.22L58.15 52.55L58.27 51.9L58.39 51.24L58.51 50.59L58.63 49.94L58.74 49.3L58.89 48.66L59.11 48.05L59.38 47.46L59.72 46.9L60.11 46.36L60.55 45.86L61.04 45.39L61.56 44.95L62.13 44.55L62.72 44.19L63.35 43.86L63.99 43.57L64.66 43.33L65.34 43.13L66.03 42.97L66.73 42.86L67.44 42.8L68.13 42.8L68.83 42.84L69.51 42.94ZM79.39 61.35L75.03 57.84L82.65 56.56L85.32 60.38L79.39 61.35Z" id="a1nAtxV7Mz"></path></defs><g><g><g><use xlink:href="#b2UiXdAYaN" opacity="1" fill="#000000" fill-opacity="1"></use></g><g><use xlink:href="#a1cJiXiLgF" opacity="1" fill="#000000" fill-opacity="1"></use></g><g><use xlink:href="#a5kzFYCPx" opacity="1" fill="#000000" fill-opacity="1"></use></g><g><use xlink:href="#e3iEmt8v1" opacity="1" fill="#000000" fill-opacity="1"></use></g><g><use xlink:href="#a7SAtQ4A8" opacity="1" fill="#000000" fill-opacity="1"></use></g><g><use xlink:href="#d3cektq84l" opacity="1" fill="#000000" fill-opacity="1"></use></g><g><use xlink:href="#dfAelE2Qn" opacity="1" fill="#000000" fill-opacity="1"></use></g><g><use xlink:href="#a1nAtxV7Mz" opacity="1" fill="#000000" fill-opacity="1"></use></g></g></g></svg>