<?xml version="1.0" encoding="UTF-8" standalone="no"?>
<!DOCTYPE svg PUBLIC "-//W3C//DTD SVG 1.1//EN" "http://www.w3.org/Graphics/SVG/1.1/DTD/svg11.dtd">
<svg version="1.1" xmlns="http://www.w3.org/2000/svg" xmlns:xlink="http://www.w3.org/1999/xlink" preserveAspectRatio="xMidYMid meet" viewBox="0 0 100 100" width="100" height="100"><defs><path d="M62.77 45.15C67.23 45.15 70.85 48.77 70.85 53.23C70.85 58.57 70.85 66.53 70.85 71.87C70.85 76.33 67.23 79.95 62.77 79.95C56.03 79.95 43.87 79.95 37.13 79.95C32.67 79.95 29.05 76.33 29.05 71.87C29.05 66.53 29.05 58.57 29.05 53.23C29.05 48.77 32.67 45.15 37.13 45.15C43.87 45.15 56.03 45.15 62.77 45.15Z" id="a1xEPMwfyC"></path><path d="M20.25 58.05C20.25 60.53 18.68 62.55 16.75 62.55C14.82 62.55 13.25 60.53 13.25 58.05C13.25 55.57 14.82 53.55 16.75 53.55C18.68 53.55 20.25 55.57 20.25 58.05Z" id="a4ETHUOHLn"></path><path d="M20.25 67.05C20.25 69.53 18.68 71.55 16.75 71.55C14.82 71.55 13.25 69.53 13.25 67.05C13.25 64.57 14.82 62.55 16.75 62.55C18.68 62.55 20.25 64.57 20.25 67.05Z" id="aecywtyd5"></path><path d="M16.75 58.05L27.25 58.05L27.25 66.15L16.75 66.15L16.75 58.05Z" id="b2vj6OWtJ2"></path><path d="M79.75 58.05C79.75 60.53 81.32 62.55 83.25 62.55C85.18 62.55 86.75 60.53 86.75 58.05C86.75 55.57 85.18 53.55 83.25 53.55C81.32 53.55 79.75 55.57 79.75 58.05Z" id="f4jR7CpgpE"></path><path d="M79.75 67.05C79.75 69.53 81.32 71.55 83.25 71.55C85.18 71.55 86.75 69.53 86.75 67.05C86.75 64.57 85.18 62.55 83.25 62.55C81.32 62.55 79.75 64.57 79.75 67.05Z" id="h2lMbq1nUM"></path><path d="M83.25 58.05L72.75 58.05L72.75 66.15L83.25 66.15L83.25 58.05Z" id="b1vRfrqfYL"></path><path d="M41.73 40.67C39.45 38.26 39.45 34.98 41.73 30.84C44.02 26.7 44.02 23.1 41.73 20.05L37.45 20.05C39.64 23.01 39.64 26.26 37.45 29.81C35.25 33.35 35.06 36.98 36.87 40.67L41.73 40.67Z" id="c1ZdIVPluS"></path><path d="M52.71 40.67C50.42 38.26 50.42 34.98 52.71 30.84C54.99 26.7 54.99 23.1 52.71 20.05L48.42 20.05C50.61 23.01 50.61 26.26 48.42 29.81C46.23 33.35 46.04 36.98 47.85 40.67L52.71 40.67Z" id="hdIJoDKq5"></path><path d="M63.3 40.67C61.02 38.26 61.02 34.98 63.3 30.84C65.59 26.7 65.59 23.1 63.3 20.05L59.02 20.05C61.21 23.01 61.21 26.26 59.02 29.81C56.83 33.35 56.64 36.98 58.44 40.67L63.3 40.67Z" id="ajWfOJc0E"></path></defs><g><g><g><use xlink:href="#a1xEPMwfyC" opacity="1" fill="#000000" fill-opacity="1"></use></g><g><use xlink:href="#a4ETHUOHLn" opacity="1" fill="#000000" fill-opacity="1"></use></g><g><use xlink:href="#aecywtyd5" opacity="1" fill="#000000" fill-opacity="1"></use></g><g><use xlink:href="#b2vj6OWtJ2" opacity="1" fill="#000000" fill-opacity="1"></use></g><g><use xlink:href="#f4jR7CpgpE" opacity="1" fill="#000000" fill-opacity="1"></use></g><g><use xlink:href="#h2lMbq1nUM" opacity="1" fill="#000000" fill-opacity="1"></use></g><g><use xlink:href="#b1vRfrqfYL" opacity="1" fill="#000000" fill-opacity="1"></use></g><g><use xlink:href="#c1ZdIVPluS" opacity="1" fill="#000000" fill-opacity="1"></use></g><g><use xlink:href="#hdIJoDKq5" opacity="1" fill="#000000" fill-opacity="1"></use></g><g><use xlink:href="#ajWfOJc0E" opacity="1" fill="#000000" fill-opacity="1"></use></g></g></g></svg>