<?xml version="1.0" encoding="utf-8"?>
<!-- Generator: Adobe Illustrator 16.0.0, SVG Export Plug-In . SVG Version: 6.00 Build 0)  -->
<!DOCTYPE svg PUBLIC "-//W3C//DTD SVG 1.1//EN" "http://www.w3.org/Graphics/SVG/1.1/DTD/svg11.dtd">
<svg version="1.1" id="Layer_1" xmlns="http://www.w3.org/2000/svg" xmlns:xlink="http://www.w3.org/1999/xlink" x="0px" y="0px"
	 width="100px" height="100px" viewBox="0 0 100 100" enable-background="new 0 0 100 100" xml:space="preserve">
<g>
	<g>
		<g>
			<g>
				<path id="f1ytD3QeBn" d="M53.65,21.07l1.229,0.43l1.16,0.58l1.06,0.72l0.961,0.84l0.85,0.96l0.71,1.07l0.58,1.15l0.43,1.24
					l0.271,1.3l0.09,1.35l-0.09,1.36l-0.271,1.3L60.2,34.6l-0.58,1.16l-0.71,1.06l-0.85,0.96L57.1,38.63l-1.06,0.72l-1.16,0.58
					l-1.229,0.43l-1.301,0.26l-1.359,0.09l-1.36-0.09l-1.3-0.26l-1.23-0.43l-1.15-0.58l-1.07-0.72l-0.96-0.85l-0.84-0.96l-0.72-1.06
					l-0.58-1.16l-0.43-1.23l-0.27-1.3l-0.09-1.36l0.09-1.35l0.27-1.3l0.43-1.24l0.58-1.15l0.72-1.07l0.84-0.96l0.96-0.84l1.07-0.72
					l1.15-0.58l1.23-0.43l1.3-0.26l1.36-0.1l1.359,0.1L53.65,21.07z M48.34,26.18L47.28,27l-0.82,1.06l-0.53,1.26l-0.19,1.39
					l0.19,1.4l0.53,1.25l0.82,1.07l1.06,0.82l1.26,0.53l1.39,0.18l1.4-0.18l1.25-0.53l1.06-0.82l0.819-1.07l0.53-1.25l0.19-1.4
					l-0.19-1.39l-0.53-1.26L54.7,27l-1.06-0.82l-1.25-0.53l-1.4-0.19l-1.39,0.19L48.34,26.18z"/>
			</g>
		</g>
		<g>
			<g>
				<path id="bflwtTK2a" d="M86.029,56.98L85.82,58.02l-0.28,1.03l-0.33,1.011l-0.39,1l-0.45,0.979L83.87,63l-0.55,0.939
					l-0.61,0.931l-0.649,0.899l-0.701,0.881l-0.75,0.859l-0.799,0.84L78.96,69.16l-0.88,0.79l-0.93,0.77l-0.971,0.74l-1.01,0.71
					l-1.061,0.68l-1.08,0.65L71.9,74.12l-1.16,0.59l-1.19,0.57L68.32,75.8l-1.25,0.5l-1.291,0.46l-1.319,0.42l-1.34,0.391
					l-1.37,0.35l-1.391,0.311l-1.42,0.279L57.5,78.74l-1.46,0.199l-1.49,0.15l-1.5,0.11l-1.521,0.06L50,79.29l-1.53-0.03l-1.52-0.06
					l-1.5-0.11l-1.49-0.15L42.5,78.74l-1.44-0.23l-1.42-0.279l-1.39-0.311l-1.37-0.35l-1.34-0.391l-1.32-0.42l-1.29-0.46l-1.25-0.5
					l-1.23-0.52l-1.19-0.57l-1.16-0.59l-1.13-0.62l-1.08-0.65l-1.06-0.68l-1.01-0.71l-0.97-0.74l-0.93-0.77l-0.88-0.79l-0.85-0.811
					l-0.8-0.84l-0.75-0.859l-0.7-0.881l-0.65-0.899l-0.61-0.931L16.13,63l-0.5-0.96l-0.45-0.979l-0.39-1l-0.33-1.011l-0.28-1.03
					l-0.21-1.039l-0.16-1.051l-0.02-0.24h72.42l-0.021,0.24L86.029,56.98z M61.109,73.08l0.841,0.37l1.09,0.149l1.31-0.069
					l1.48-0.28l1.58-0.5l1.65-0.7l1.569-0.86l1.36-0.939l1.13-0.99l0.87-0.99l0.56-0.959l0.22-0.881l-0.1-0.52l-13.91,6.77
					L61.109,73.08z"/>
			</g>
		</g>
		<g>
			<g>
				<path id="a3ci81UJwh" d="M43.7,33.51l3.45,3.71L21.82,60.811L18.37,57.1L43.7,33.51z"/>
			</g>
		</g>
		<g>
			<g>
				<path id="g12ANImfGW" d="M78.75,60.811l3.46-3.711L56.88,33.51l-3.46,3.71L78.75,60.811z"/>
			</g>
		</g>
		<g>
			<g>
				<path id="a1kVzwhYyn" d="M47.96,53.79V42.58l0.11,0.03l1.29,0.21l1.33,0.07l1.33-0.07l1.291-0.21l0.109-0.03v11.21H47.96z"/>
			</g>
		</g>
	</g>
</g>
</svg>
