<?xml version="1.0" encoding="UTF-8" ?>
<!DOCTYPE svg PUBLIC "-//W3C//DTD SVG 1.1//EN" "http://www.w3.org/Graphics/SVG/1.1/DTD/svg11.dtd">
<svg width="416pt" height="416pt" viewBox="0 0 416 416" version="1.1" xmlns="http://www.w3.org/2000/svg">
<g id="#ffffffff">
</g>
<g id="#000000ff">
<path fill="#000000" opacity="1.00" d=" M 221.45 31.44 C 222.44 31.49 223.43 31.54 224.43 31.58 C 225.74 36.76 220.92 40.25 220.25 45.05 C 218.65 54.32 217.80 63.85 219.41 73.20 C 219.41 78.74 221.29 84.01 222.01 89.46 C 222.37 95.79 227.02 100.59 230.50 105.50 C 233.11 109.54 237.48 112.38 239.04 117.07 C 239.55 120.04 239.54 123.07 239.52 126.07 C 239.58 128.74 237.55 130.75 236.31 132.94 C 238.26 137.71 238.14 143.35 241.65 147.44 C 242.85 149.24 245.22 148.67 247.04 148.68 C 254.05 142.91 255.30 132.37 263.53 127.72 C 268.78 127.33 273.98 126.35 279.26 126.43 C 279.98 124.41 280.95 122.26 279.87 120.16 C 277.86 114.91 278.17 109.17 276.36 103.89 C 276.24 100.15 275.54 96.09 277.51 92.69 C 279.80 88.13 279.38 82.93 279.54 77.99 C 279.56 72.78 279.76 67.37 277.77 62.45 C 274.84 57.50 271.41 52.84 267.18 48.90 C 265.25 48.32 263.07 48.51 261.42 47.16 C 260.99 45.55 261.47 44.32 262.85 43.48 C 266.72 43.24 270.84 43.74 273.98 46.20 C 276.09 47.89 279.09 47.98 280.99 49.99 C 288.92 57.81 297.26 65.37 303.79 74.45 C 306.58 80.78 307.30 88.07 305.49 94.80 C 301.93 104.11 302.70 114.31 300.95 124.03 C 300.55 128.41 298.54 132.51 298.57 136.94 C 298.38 142.26 298.61 147.62 297.77 152.90 C 297.22 160.11 297.84 167.43 296.39 174.56 C 295.57 176.73 294.49 178.80 293.76 181.01 C 292.27 185.82 289.08 190.01 288.58 195.13 C 287.34 204.33 283.09 212.69 280.26 221.43 C 276.90 229.98 273.90 238.71 271.94 247.70 C 270.76 252.09 268.68 256.26 268.43 260.87 C 268.14 264.80 266.65 268.47 265.67 272.25 C 264.66 278.53 264.26 284.90 262.85 291.11 C 262.12 295.38 260.59 299.56 260.67 303.93 C 260.71 311.95 260.77 319.96 260.69 327.98 C 260.62 332.57 259.01 336.91 257.59 341.21 C 256.24 345.25 255.92 349.57 254.42 353.57 C 252.54 358.12 252.53 363.41 249.33 367.39 C 246.65 370.87 244.41 375.34 239.98 376.82 C 237.97 377.61 236.40 379.13 234.54 380.19 C 225.89 382.89 216.83 381.10 208.07 380.12 C 201.87 378.81 195.40 378.48 189.42 376.39 C 185.68 372.54 181.31 369.13 178.81 364.28 C 174.22 357.33 172.10 349.17 170.31 341.13 C 168.14 334.04 166.76 326.72 166.19 319.33 C 164.21 311.87 163.10 304.22 162.20 296.57 C 161.51 292.50 158.99 289.02 158.40 284.91 C 157.83 281.01 155.21 277.94 153.50 274.51 C 151.64 271.30 150.32 267.82 148.35 264.68 C 145.36 260.37 141.95 256.36 139.14 251.93 C 137.43 249.33 137.41 246.07 136.02 243.34 C 133.71 238.90 132.05 234.17 130.46 229.45 C 128.96 224.76 126.76 220.28 125.85 215.41 C 124.85 209.89 123.08 204.54 122.26 198.98 C 121.08 193.04 121.88 186.94 120.97 180.98 C 120.34 176.95 121.21 172.71 119.57 168.86 C 117.71 163.84 117.53 158.43 116.15 153.28 C 114.13 146.14 112.32 138.80 112.43 131.33 C 112.70 127.97 108.86 126.06 108.73 122.78 C 108.53 117.84 108.58 112.78 110.11 108.04 C 111.72 105.43 114.38 103.67 116.60 101.61 C 121.39 97.67 124.11 91.84 128.86 87.85 C 133.31 83.98 137.32 79.25 142.96 77.09 C 146.23 75.67 149.07 72.31 152.98 73.41 L 153.92 74.71 C 149.97 78.21 146.44 82.14 142.75 85.89 C 141.46 87.14 141.11 88.95 140.33 90.50 C 139.31 92.71 137.32 94.38 136.56 96.72 C 134.73 102.00 135.97 107.63 136.39 113.02 C 136.39 117.91 140.37 121.89 139.86 126.89 C 139.05 131.15 134.56 134.39 135.61 139.06 C 136.46 142.50 138.93 146.94 143.00 146.68 C 145.66 147.07 146.13 143.97 147.42 142.34 C 149.41 138.64 152.54 135.65 154.34 131.88 C 154.54 125.32 155.27 118.80 155.69 112.25 C 157.01 108.51 158.10 104.69 158.86 100.79 C 162.81 90.36 166.96 79.96 172.07 70.05 C 174.54 66.53 177.70 63.55 179.96 59.87 C 180.83 59.76 181.71 59.65 182.60 59.54 C 182.15 63.34 180.48 66.81 178.77 70.19 C 177.43 78.37 177.84 86.81 176.51 95.03 C 175.62 100.12 177.82 104.99 177.72 110.05 C 177.72 114.37 181.34 117.71 181.48 122.03 C 181.97 127.68 176.17 132.12 177.83 137.88 C 179.03 141.59 181.00 144.99 182.59 148.54 C 184.32 151.10 187.09 152.76 189.18 155.01 C 192.56 151.45 191.44 146.34 190.71 142.01 C 191.27 138.84 191.29 135.63 191.67 132.45 C 193.20 128.07 196.30 124.52 198.74 120.66 C 199.86 117.70 201.32 114.90 203.23 112.37 C 205.32 106.69 199.66 102.46 199.57 97.01 C 199.15 89.49 199.48 81.91 200.92 74.52 C 201.55 72.82 202.56 71.30 203.28 69.64 C 203.65 67.12 203.30 64.55 203.64 62.03 C 204.59 58.35 207.28 55.45 208.32 51.80 C 209.60 47.89 212.58 44.94 215.18 41.88 C 215.68 37.58 219.08 34.76 221.45 31.44 Z" />
</g>
</svg>
