<?xml version="1.0" encoding="UTF-8" ?>
<!DOCTYPE svg PUBLIC "-//W3C//DTD SVG 1.1//EN" "http://www.w3.org/Graphics/SVG/1.1/DTD/svg11.dtd">
<svg width="626pt" height="626pt" viewBox="0 0 626 626" version="1.1" xmlns="http://www.w3.org/2000/svg">
<g id="#000000ff">
<path fill="#000000" opacity="1.00" d=" M 305.73 22.22 C 311.73 20.34 318.09 23.59 322.42 27.66 C 331.80 36.94 335.95 50.11 337.42 62.93 C 337.52 69.30 339.09 75.64 338.03 82.01 C 337.87 92.71 333.32 103.24 325.73 110.77 C 321.69 114.46 316.74 117.95 311.00 117.70 C 301.98 118.51 293.70 112.20 289.63 104.52 C 278.02 83.69 279.52 57.21 290.24 36.34 C 293.75 30.21 298.37 23.75 305.73 22.22 Z" />
<path fill="#000000" opacity="1.00" d=" M 234.70 32.77 C 239.66 30.24 245.78 29.86 250.81 32.46 C 261.51 38.49 266.77 50.52 269.44 61.98 C 271.73 72.94 272.47 84.56 269.11 95.40 C 265.93 105.59 260.70 115.54 252.52 122.60 C 248.70 125.86 243.94 127.56 239.02 128.21 C 232.23 128.83 225.16 126.52 220.40 121.55 C 210.57 112.39 207.36 97.95 209.18 85.02 C 209.75 72.83 212.65 60.58 218.52 49.82 C 222.10 42.76 227.80 36.69 234.70 32.77 Z" />
<path fill="#000000" opacity="1.00" d=" M 369.76 34.83 C 377.25 33.34 383.67 38.41 388.96 43.00 C 397.17 51.12 402.12 61.91 405.34 72.86 C 409.58 84.37 410.87 96.95 408.90 109.06 C 407.54 113.19 407.14 117.56 405.83 121.69 C 402.69 129.26 397.35 136.48 389.60 139.74 C 383.74 142.11 376.85 141.90 371.23 138.97 C 359.45 133.04 352.21 120.63 349.19 108.18 C 348.51 102.44 346.61 96.91 346.34 91.11 C 345.01 84.05 346.19 76.88 346.77 69.81 C 348.80 60.34 351.14 50.37 357.64 42.85 C 360.71 38.99 364.92 35.97 369.76 34.83 Z" />
<path fill="#000000" opacity="1.00" d=" M 446.56 80.78 C 461.37 78.35 475.81 87.14 484.10 98.94 C 492.02 110.86 496.78 124.79 498.63 138.94 C 498.75 153.79 498.49 169.62 490.87 182.86 C 485.23 192.62 476.62 201.59 465.24 204.11 C 457.50 205.52 449.35 204.36 442.25 200.98 C 433.25 195.81 426.20 187.53 421.92 178.12 C 418.76 171.33 415.53 164.44 414.41 156.97 C 413.22 150.70 413.32 144.28 413.53 137.93 C 414.67 128.84 414.41 119.27 418.56 110.84 C 422.29 102.91 425.71 94.38 432.49 88.47 C 436.55 85.01 441.17 81.67 446.56 80.78 Z" />
<path fill="#000000" opacity="1.00" d=" M 170.25 81.28 C 174.72 81.39 179.55 80.88 183.55 83.33 C 186.11 85.15 188.87 86.79 191.07 89.07 C 196.95 96.17 199.20 105.36 200.68 114.25 C 201.27 120.10 201.92 126.00 200.74 131.84 C 200.24 142.27 194.68 151.47 188.43 159.49 C 181.84 166.53 173.02 172.68 162.99 172.48 C 153.08 172.37 144.46 165.43 139.99 156.93 C 135.19 148.48 135.10 138.47 135.36 129.03 C 136.69 117.73 140.13 106.37 147.18 97.28 C 152.11 91.76 157.48 86.23 164.39 83.24 C 166.35 82.30 168.58 82.04 170.73 82.25 C 170.61 82.01 170.37 81.52 170.25 81.28 Z" />
<path fill="#000000" opacity="1.00" d=" M 282.85 133.03 C 287.13 131.94 291.64 132.59 296.02 132.35 C 313.20 131.75 330.14 135.00 347.02 137.79 C 359.14 140.63 370.89 145.17 381.51 151.68 C 392.79 158.97 402.96 167.84 413.20 176.51 C 421.20 183.81 427.99 192.43 433.37 201.83 C 441.98 215.48 447.81 231.22 447.76 247.51 C 450.25 266.96 444.52 286.11 438.05 304.23 C 434.51 313.35 430.94 322.87 423.92 329.96 C 418.46 336.51 413.71 343.63 408.07 350.04 C 403.17 356.08 397.09 361.32 393.74 368.48 C 390.13 375.94 387.68 383.91 385.15 391.79 C 381.23 405.47 380.69 419.89 381.52 434.03 C 383.65 446.81 387.45 459.24 391.77 471.44 C 393.44 477.59 397.88 482.46 399.83 488.52 C 404.90 498.92 404.67 510.76 406.35 521.98 C 405.94 528.91 405.01 535.84 404.19 542.76 C 401.55 550.74 399.55 558.94 396.60 566.83 C 394.68 570.35 392.38 573.68 390.11 576.99 C 384.65 582.91 378.37 588.02 372.32 593.31 C 365.64 596.90 358.69 600.47 351.10 601.64 C 342.52 603.56 333.65 601.74 325.04 603.19 C 322.00 603.69 319.01 602.69 315.98 602.73 C 302.86 603.13 289.90 600.87 276.91 599.45 C 257.92 596.15 239.16 591.23 221.19 584.20 C 207.20 577.59 194.18 568.75 183.13 557.90 C 176.72 550.81 171.70 542.63 165.97 535.01 C 156.14 521.55 150.93 505.46 147.25 489.39 C 146.11 485.69 144.99 481.98 144.53 478.13 C 142.68 464.49 138.32 451.38 135.02 438.06 C 133.19 429.14 132.81 420.01 131.43 411.02 C 130.78 407.75 132.47 404.43 131.45 401.23 C 131.15 403.16 131.13 405.13 130.94 407.08 C 129.07 389.78 129.86 372.36 129.42 355.00 C 128.97 335.67 130.23 316.32 129.46 297.01 C 129.70 298.35 129.95 299.69 130.20 301.04 C 130.05 289.61 132.46 278.38 133.59 267.06 C 134.38 262.73 134.16 258.17 135.94 254.08 C 139.98 243.12 143.55 232.00 147.87 221.14 C 150.06 214.32 154.22 208.29 158.87 202.91 C 166.12 192.09 175.21 182.56 184.97 173.96 C 196.02 163.99 208.38 155.35 222.06 149.40 C 231.36 143.91 241.80 141.06 251.97 137.74 C 262.11 135.36 272.40 133.27 282.85 133.03 Z" />
</g>
</svg>
