<?xml version="1.0" encoding="UTF-8" ?>
<!DOCTYPE svg PUBLIC "-//W3C//DTD SVG 1.1//EN" "http://www.w3.org/Graphics/SVG/1.1/DTD/svg11.dtd">
<svg width="626pt" height="626pt" viewBox="0 0 626 626" version="1.1" xmlns="http://www.w3.org/2000/svg">
<g id="#000000ff">
<path fill="#000000" opacity="1.00" d=" M 314.46 30.75 C 319.30 30.35 324.13 29.67 328.99 29.82 C 339.76 30.29 350.34 32.49 361.09 33.22 C 367.28 33.59 372.82 36.57 378.63 38.42 C 384.39 40.53 390.04 42.93 395.68 45.35 C 401.06 47.58 405.21 51.77 409.92 55.06 C 414.38 58.21 418.58 61.70 422.52 65.47 C 428.17 70.83 435.38 74.70 439.48 81.54 C 446.40 92.85 454.33 103.52 461.00 114.98 C 468.59 130.54 474.17 146.97 479.73 163.33 C 481.81 172.18 484.10 181.02 485.50 190.00 C 485.91 200.99 485.48 212.00 485.58 223.00 C 486.39 238.30 482.22 253.22 479.17 268.08 C 478.32 272.51 476.64 276.71 475.05 280.91 C 472.99 286.05 472.27 291.68 469.55 296.57 C 466.52 302.04 464.67 308.06 461.44 313.42 C 458.45 319.76 455.24 325.99 452.25 332.32 C 443.07 352.90 431.09 372.04 421.12 392.21 C 419.58 395.86 418.20 399.65 415.74 402.81 C 414.35 403.69 412.60 403.62 411.03 403.76 C 326.02 403.73 241.01 403.74 156.00 403.76 C 151.92 403.61 147.66 404.39 143.69 403.19 C 140.60 400.91 139.62 396.92 138.47 393.46 C 135.75 383.52 133.10 373.55 130.15 363.66 C 126.33 350.75 125.61 337.22 123.06 324.06 C 122.09 318.39 120.90 312.73 120.48 306.99 C 119.86 290.77 118.21 274.43 120.42 258.26 C 120.99 254.16 121.04 250.03 121.39 245.92 C 121.95 240.25 124.45 235.01 125.20 229.38 C 127.51 215.13 129.63 200.85 132.42 186.68 C 135.57 174.18 140.37 162.18 145.46 150.37 C 149.76 142.63 152.82 134.22 157.85 126.89 C 160.41 123.11 162.94 119.31 165.56 115.57 C 170.46 108.56 174.79 101.04 181.07 95.13 C 188.77 87.81 194.84 78.68 203.98 72.97 C 211.01 68.61 217.73 63.67 225.34 60.32 C 239.15 53.47 253.29 47.33 267.52 41.41 C 272.00 39.69 276.59 38.29 281.24 37.12 C 288.13 35.40 294.90 33.06 301.97 32.17 C 306.13 31.67 310.29 31.15 314.46 30.75 Z" />
<path fill="#000000" opacity="1.00" d=" M 156.33 446.36 C 157.86 446.09 159.40 446.01 160.95 445.97 C 238.96 446.03 316.98 445.98 395.00 446.00 C 399.90 446.09 404.85 445.57 409.71 446.38 C 412.47 446.76 412.90 450.03 413.87 452.13 C 418.10 465.39 423.47 478.24 428.89 491.05 C 431.33 496.61 433.42 502.33 435.00 508.20 C 437.12 515.95 440.46 523.79 439.17 531.98 C 438.23 536.69 436.30 541.13 434.59 545.60 C 432.52 551.07 427.95 554.92 424.29 559.28 C 419.75 564.68 413.46 568.02 407.52 571.60 C 393.70 579.46 378.14 583.34 362.75 586.77 C 351.54 588.65 340.27 590.35 328.95 591.31 C 315.37 591.77 301.75 592.92 288.18 591.75 C 278.78 591.00 269.37 590.55 259.97 589.82 C 249.47 588.58 239.73 584.12 230.11 580.00 C 223.68 577.31 217.83 573.49 211.63 570.37 C 204.62 566.97 198.38 562.27 191.78 558.19 C 188.96 555.33 187.50 551.24 184.23 548.76 C 179.71 545.27 175.74 540.88 173.38 535.64 C 171.20 530.91 168.65 526.38 166.15 521.83 C 163.60 517.35 163.46 512.04 161.52 507.34 C 159.99 503.46 158.12 499.63 157.80 495.41 C 156.80 485.98 156.11 476.51 156.35 467.01 C 156.60 460.13 154.99 453.18 156.33 446.36 Z" />
</g>
</svg>
