<?xml version="1.0" encoding="UTF-8" ?>
<!DOCTYPE svg PUBLIC "-//W3C//DTD SVG 1.1//EN" "http://www.w3.org/Graphics/SVG/1.1/DTD/svg11.dtd">
<svg width="626pt" height="626pt" viewBox="0 0 626 626" version="1.1" xmlns="http://www.w3.org/2000/svg">
<g id="#000000ff">
<path fill="#000000" opacity="1.00" d=" M 283.26 42.28 C 296.11 33.54 313.24 31.76 327.72 37.25 C 336.81 40.40 345.08 45.46 353.17 50.54 C 359.83 49.11 365.64 45.12 372.19 43.25 C 388.78 37.83 407.42 42.38 421.14 52.69 C 428.94 55.94 435.74 61.47 440.89 68.14 C 452.50 81.99 459.20 99.91 459.23 118.00 C 458.97 123.33 458.39 128.63 457.97 133.94 C 456.94 149.06 451.65 163.58 444.74 176.96 C 442.71 182.02 437.39 184.52 434.63 189.07 C 435.50 195.27 439.25 200.69 439.94 206.97 C 442.71 218.86 440.72 231.05 440.60 243.08 C 440.48 247.50 438.85 251.67 437.81 255.92 C 435.94 263.55 431.97 270.38 428.26 277.22 C 424.29 284.95 416.78 289.79 411.00 296.01 C 406.95 300.49 401.22 302.78 396.78 306.78 C 393.01 310.15 388.97 313.25 384.45 315.54 C 379.69 317.92 375.71 321.52 371.16 324.25 C 366.64 326.90 363.34 331.06 360.08 335.06 C 357.38 338.21 356.66 342.39 354.95 346.06 C 350.81 353.61 350.95 362.99 353.97 370.91 C 355.75 375.56 356.30 380.77 359.09 384.97 C 364.46 390.99 370.08 396.96 373.80 404.19 C 378.04 412.60 384.85 419.30 389.48 427.45 C 394.55 436.65 399.96 445.77 403.07 455.88 C 406.30 465.73 408.26 475.95 409.90 486.18 C 411.47 496.79 409.10 507.42 408.09 517.97 C 406.80 530.90 400.34 542.36 394.41 553.63 C 391.10 560.56 385.32 565.72 380.45 571.49 C 376.35 576.27 370.51 578.91 365.39 582.39 C 355.96 588.87 344.79 592.09 333.77 594.68 C 322.76 597.27 311.33 598.12 300.06 597.11 C 290.07 595.80 280.04 594.53 269.96 594.25 C 263.27 593.55 256.79 591.53 250.41 589.50 C 238.83 585.52 229.16 577.79 219.48 570.55 C 213.94 566.47 209.32 561.36 204.48 556.51 C 201.27 553.26 199.40 548.98 196.39 545.56 C 189.84 537.77 184.04 529.20 180.54 519.58 C 178.26 512.91 175.42 506.35 174.67 499.27 C 173.95 492.83 172.76 486.45 171.93 480.03 C 171.22 470.73 171.87 461.40 171.53 452.09 C 171.47 447.33 167.71 443.73 167.09 439.10 C 165.38 429.95 161.98 421.25 159.63 412.26 C 158.53 408.23 156.90 404.37 155.53 400.43 C 153.63 395.00 153.08 389.19 150.99 383.81 C 148.55 377.95 145.64 372.30 142.83 366.62 C 140.93 360.17 139.29 353.60 136.52 347.43 C 134.01 342.10 132.84 336.29 131.11 330.69 C 127.89 320.49 127.61 309.63 124.26 299.47 C 120.84 289.17 120.69 278.23 119.39 267.56 C 114.47 238.68 120.10 208.21 135.01 183.00 C 136.77 179.91 139.53 176.84 139.06 173.04 C 138.09 169.37 135.40 166.40 134.56 162.68 C 132.68 153.47 131.47 143.81 133.84 134.57 C 137.25 123.59 142.20 112.70 150.61 104.62 C 153.92 101.09 158.16 98.71 162.22 96.18 C 164.67 94.81 165.55 92.01 166.64 89.61 C 171.80 76.87 183.37 67.67 195.91 62.75 C 200.35 60.83 205.40 61.56 209.88 59.83 C 212.90 57.92 214.63 54.60 217.36 52.35 C 227.32 44.20 239.98 38.47 253.07 39.31 C 261.18 39.35 268.70 42.68 276.38 44.82 C 278.98 45.72 281.13 43.39 283.26 42.28 Z" />
</g>
</svg>
