<?xml version="1.0" encoding="UTF-8" ?>
<!DOCTYPE svg PUBLIC "-//W3C//DTD SVG 1.1//EN" "http://www.w3.org/Graphics/SVG/1.1/DTD/svg11.dtd">
<svg width="626pt" height="626pt" viewBox="0 0 626 626" version="1.1" xmlns="http://www.w3.org/2000/svg">
<g id="#000000ff">
<path fill="#000000" opacity="1.00" d=" M 292.50 32.98 C 302.32 32.19 312.20 32.46 322.04 32.58 C 332.81 33.23 343.42 35.42 354.01 37.37 C 375.60 41.25 395.83 52.19 411.12 67.88 C 422.91 78.75 435.17 89.55 443.70 103.31 C 454.16 120.41 462.97 139.08 465.36 159.19 C 466.60 170.08 467.60 181.01 468.23 191.95 C 468.31 215.09 462.76 238.10 453.08 259.07 C 450.23 266.17 446.07 272.59 442.10 279.08 C 437.21 287.51 433.86 296.71 429.26 305.28 C 421.36 319.44 419.19 335.72 416.30 351.42 C 413.64 365.50 415.67 379.83 416.05 394.00 C 416.63 413.36 422.11 432.08 427.39 450.57 C 429.97 459.92 433.55 468.94 436.95 478.02 C 440.50 487.23 440.14 497.30 439.46 506.98 C 438.02 520.73 433.39 534.22 425.86 545.84 C 420.09 554.88 411.72 561.74 403.77 568.78 C 390.44 580.77 373.16 586.83 356.40 592.30 C 347.97 595.34 339.00 596.22 330.20 597.59 C 324.50 598.46 318.71 598.66 312.96 598.28 C 300.43 597.26 287.78 596.73 275.52 593.76 C 257.68 589.68 239.33 585.40 223.76 575.34 C 211.31 567.73 199.46 559.13 188.16 549.90 C 178.47 541.49 169.87 531.82 162.74 521.15 C 158.64 514.91 153.67 509.22 150.39 502.48 C 147.77 497.25 145.85 491.72 143.39 486.43 C 137.64 473.80 130.85 461.57 126.73 448.26 C 119.85 427.25 114.87 405.65 111.20 383.85 C 110.28 377.49 110.68 371.02 109.84 364.65 C 109.03 358.12 108.13 351.58 108.31 344.99 C 108.49 325.67 107.86 306.34 108.46 287.02 C 110.59 263.19 115.04 239.51 122.57 216.78 C 125.11 208.69 126.99 200.38 130.33 192.56 C 135.14 181.34 138.31 169.45 143.76 158.49 C 146.44 153.02 149.26 147.62 152.56 142.49 C 156.13 136.87 158.37 130.53 161.94 124.90 C 168.32 115.37 174.01 105.32 181.66 96.70 C 195.81 79.46 212.45 63.95 231.99 53.01 C 250.43 42.17 271.10 34.81 292.50 32.98 M 280.62 77.61 C 274.86 79.90 269.23 82.51 263.61 85.14 C 271.90 89.22 280.55 92.47 289.10 95.97 C 324.04 110.32 358.99 124.64 393.94 138.99 C 400.67 141.70 407.26 144.81 414.23 146.92 C 410.63 140.04 405.82 133.91 401.45 127.53 C 397.98 122.64 394.74 117.59 391.19 112.76 C 387.23 107.41 381.75 103.54 376.78 99.22 C 372.04 95.18 367.28 90.97 361.46 88.57 C 353.94 85.39 346.41 82.24 338.88 79.09 C 328.84 74.89 317.78 73.79 306.99 74.31 C 298.17 74.78 288.98 74.23 280.62 77.61 M 193.54 147.55 C 190.57 151.58 188.09 155.95 185.97 160.49 C 248.47 182.58 311.03 204.48 373.56 226.47 C 385.49 230.94 397.84 234.32 409.31 239.94 C 412.00 233.43 414.02 226.67 415.75 219.85 C 417.04 214.79 416.70 209.52 416.66 204.35 C 406.05 199.83 395.22 195.88 384.57 191.44 C 326.66 168.55 268.90 145.24 210.94 122.46 C 204.77 130.56 199.46 139.27 193.54 147.55 M 156.94 227.83 C 154.60 239.36 151.71 250.76 149.30 262.27 C 158.32 264.78 167.55 266.36 176.71 268.28 C 245.98 282.59 315.32 296.56 384.79 309.88 C 388.76 300.40 392.43 290.77 395.27 280.88 C 386.93 278.22 378.35 276.42 369.89 274.21 C 326.06 262.94 282.16 251.97 238.32 240.72 C 212.98 234.43 187.74 227.68 162.32 221.73 C 158.52 220.48 157.60 225.14 156.94 227.83 M 145.73 328.01 C 145.38 342.13 145.61 356.26 145.60 370.39 C 157.39 370.50 169.20 370.41 180.97 371.15 C 195.13 371.68 209.33 371.16 223.47 372.17 C 238.30 372.69 253.16 372.23 267.99 373.13 C 282.98 373.68 298.00 373.19 312.97 374.14 C 326.62 374.65 340.30 374.24 353.95 374.96 C 360.70 375.45 367.47 375.38 374.24 375.31 C 374.45 367.88 375.15 360.49 375.34 353.07 C 358.65 350.97 341.94 349.04 325.20 347.39 C 265.39 340.76 205.59 334.13 145.73 328.01 M 303.45 422.62 C 256.93 426.63 210.46 431.15 163.97 435.44 C 169.24 449.35 174.84 463.14 180.52 476.89 C 198.69 474.43 216.70 470.88 234.80 467.91 C 260.97 463.33 287.23 459.22 313.38 454.55 C 337.41 450.43 361.50 446.63 385.48 442.20 C 383.77 434.42 382.10 426.64 380.85 418.78 C 355.03 419.66 329.22 420.83 303.45 422.62 M 364.42 494.48 C 315.74 503.34 267.21 513.04 218.71 522.79 C 226.02 529.42 234.26 534.90 241.89 541.14 C 245.52 544.15 249.57 546.87 254.29 547.78 C 267.44 550.57 280.60 553.38 293.74 556.25 C 305.92 559.71 318.49 556.85 330.85 556.44 C 335.11 556.30 339.30 555.17 343.02 553.07 C 352.00 548.34 361.02 543.69 370.07 539.08 C 376.77 535.75 381.22 529.54 386.24 524.24 C 389.41 520.66 393.34 517.17 394.12 512.20 C 395.41 504.67 395.83 497.02 396.48 489.42 C 385.67 490.20 375.09 492.67 364.42 494.48 Z" />
</g>
</svg>
