<?xml version="1.0" encoding="UTF-8" ?>
<!DOCTYPE svg PUBLIC "-//W3C//DTD SVG 1.1//EN" "http://www.w3.org/Graphics/SVG/1.1/DTD/svg11.dtd">
<svg width="626pt" height="626pt" viewBox="0 0 626 626" version="1.1" xmlns="http://www.w3.org/2000/svg">
<g id="#000000ff">
<path fill="#000000" opacity="1.00" d=" M 292.50 31.88 C 301.31 31.19 310.17 31.51 319.01 31.46 C 327.71 31.37 336.25 33.19 344.80 34.56 C 355.72 36.54 366.81 38.53 376.95 43.24 C 388.92 48.78 400.42 55.81 409.55 65.46 C 422.27 77.36 435.93 88.88 444.83 104.12 C 451.91 116.02 458.16 128.53 462.04 141.86 C 466.42 157.51 466.77 173.87 468.17 189.95 C 468.47 214.37 462.62 238.86 451.60 260.64 C 447.29 269.51 439.77 276.08 433.36 283.38 C 428.66 288.66 424.02 294.01 419.00 299.00 C 411.14 307.24 402.40 315.17 397.82 325.85 C 389.35 344.87 386.80 366.40 389.89 386.96 C 390.94 394.17 391.82 401.52 394.63 408.31 C 400.03 421.90 408.05 434.35 417.28 445.66 C 426.93 457.63 437.03 470.42 439.26 486.13 C 441.66 504.80 437.53 524.14 428.50 540.59 C 421.27 553.53 409.57 563.04 398.26 572.26 C 385.73 581.30 371.00 586.65 356.39 591.30 C 347.42 594.50 337.86 595.19 328.53 596.76 C 319.38 598.26 310.15 596.93 301.00 596.31 C 281.52 595.03 262.47 590.13 243.96 584.10 C 233.93 581.03 225.12 575.19 216.31 569.67 C 209.42 565.33 203.16 560.08 196.36 555.62 C 190.77 552.01 186.08 547.27 181.44 542.56 C 171.71 533.16 163.52 522.32 155.75 511.29 C 147.99 501.35 144.57 489.01 139.32 477.74 C 135.66 469.09 130.91 460.89 128.18 451.86 C 122.69 435.18 117.99 418.21 114.71 400.94 C 112.14 385.89 111.02 370.65 108.98 355.53 C 108.03 348.39 108.47 341.17 108.40 334.00 C 108.48 316.99 107.99 299.97 108.61 282.98 C 110.42 269.19 112.06 255.33 115.47 241.82 C 118.21 227.63 123.65 214.18 127.25 200.22 C 130.26 188.91 135.46 178.39 139.48 167.44 C 142.08 160.34 145.53 153.60 149.14 146.98 C 151.96 142.17 155.23 137.62 157.53 132.52 C 160.65 125.66 165.19 119.63 168.97 113.15 C 173.40 105.74 178.87 99.02 184.47 92.48 C 202.81 70.64 225.95 52.43 252.52 41.76 C 265.23 36.38 278.77 33.20 292.50 31.88 Z" />
</g>
</svg>
