<?xml version="1.0" encoding="utf-8"?>
<!-- Generator: Adobe Illustrator 16.0.0, SVG Export Plug-In . SVG Version: 6.00 Build 0)  -->
<!DOCTYPE svg PUBLIC "-//W3C//DTD SVG 1.1//EN" "http://www.w3.org/Graphics/SVG/1.1/DTD/svg11.dtd">
<svg version="1.1" id="Layer_1" xmlns="http://www.w3.org/2000/svg" xmlns:xlink="http://www.w3.org/1999/xlink" x="0px" y="0px"
	 width="100px" height="100px" viewBox="0 0 100 100" enable-background="new 0 0 100 100" xml:space="preserve">
<g>
	<g>
		<g>
			<g>
				<g>
					<g>
						<path id="glnwocNVm_1_" fill-opacity="0" d="M81.21,51.87c-20.16-28.38-40.91-28.38-62.25,0"/>
						<path d="M21.358,53.673l-4.796-3.605c11.333-15.072,22.867-22.658,34.314-22.48c11.232,0.152,22.261,7.738,32.779,22.545
							l-4.891,3.475c-9.349-13.16-18.759-19.896-27.97-20.021c-0.087-0.001-0.175-0.001-0.262-0.001
							C41.196,33.585,31.382,40.341,21.358,53.673z"/>
					</g>
				</g>
			</g>
		</g>
		<g>
			<g>
				<g>
					<g>
						<path id="hZACGFym_1_" fill-opacity="0" d="M81.21,48.39c-20.25,28.32-41,28.26-62.25-0.18"/>
						<path d="M50.529,72.585c-11.349,0-22.776-7.595-33.973-22.579l4.807-3.592C31.364,59.8,41.177,66.585,50.53,66.585
							c0.067,0,0.135,0,0.202-0.001c9.213-0.097,18.646-6.805,28.037-19.939l4.881,3.49C73.083,64.913,62.029,72.466,50.795,72.584
							C50.707,72.585,50.618,72.585,50.529,72.585z"/>
					</g>
				</g>
			</g>
		</g>
		<g>
			<g>
				<path id="e5Id9JKWGv" d="M52.71,35.02l1.25,0.27l1.22,0.37l1.17,0.47l1.121,0.56l1.069,0.65l1.01,0.72l0.95,0.81l0.88,0.88
					l0.8,0.94l0.73,1.01l0.64,1.07l0.56,1.12l0.471,1.17l0.37,1.22l0.271,1.26l0.17,1.29l0.06,1.33l-0.06,1.32l-0.17,1.289
					L64.95,54.03l-0.37,1.22l-0.471,1.17l-0.56,1.12l-0.64,1.069l-0.73,1.011l-0.8,0.95l-0.88,0.869l-0.95,0.811l-1.01,0.73
					l-1.069,0.64l-1.121,0.56l-1.17,0.471l-1.22,0.369l-1.25,0.271l-1.3,0.17l-1.32,0.05l-1.33-0.05l-1.29-0.17l-1.26-0.271
					L45,64.65l-1.18-0.471l-1.12-0.56l-1.07-0.64l-1.01-0.73l-0.94-0.811L38.8,60.57L38,59.62l-0.73-1.011l-0.65-1.069l-0.56-1.12
					l-0.46-1.17l-0.38-1.22l-0.27-1.261l-0.16-1.289l-0.06-1.32l0.06-1.33l0.16-1.29l0.27-1.26l0.38-1.22l0.46-1.17l0.56-1.12
					l0.65-1.07L38,40.69l0.8-0.94l0.88-0.88l0.94-0.81l1.01-0.72l1.07-0.65l1.12-0.56L45,35.66l1.21-0.37l1.26-0.27l1.29-0.17
					l1.33-0.05l1.32,0.05L52.71,35.02z M47.31,42.7l-1.23,0.59l-1.11,0.78l-0.96,0.96l-0.79,1.11l-0.59,1.24l-0.37,1.35l-0.12,1.43
					l0.12,1.42l0.37,1.35l0.59,1.24l0.79,1.11l0.96,0.96l1.11,0.779l1.23,0.59l1.35,0.371l1.43,0.129l1.43-0.129l1.34-0.371
					l1.24-0.59l1.11-0.779l0.96-0.96l0.78-1.11l0.59-1.24l0.37-1.35l0.13-1.42l-0.13-1.43l-0.37-1.35l-0.59-1.24l-0.78-1.11
					l-0.96-0.96l-1.11-0.78l-1.24-0.59l-1.34-0.37l-1.43-0.13l-1.43,0.13L47.31,42.7z"/>
			</g>
		</g>
		<g>
			<g>
				<g>
					<g>
						<path id="c12T0hKGKS_1_" fill-opacity="0" d="M38.65,19.02c0,1.93-1.57,3.5-3.5,3.5c-1.93,0-3.5-1.57-3.5-3.5
							s1.57-3.5,3.5-3.5C37.08,15.52,38.65,17.09,38.65,19.02z"/>
						<path d="M35.15,24.02c-2.757,0-5-2.243-5-5s2.243-5,5-5s5,2.243,5,5S37.907,24.02,35.15,24.02z M35.15,17.02
							c-1.103,0-2,0.897-2,2s0.897,2,2,2s2-0.897,2-2S36.253,17.02,35.15,17.02z"/>
					</g>
				</g>
			</g>
		</g>
		<g>
			<g>
				<g>
					<g>
						<path id="fzNCcSrRn_1_" fill-opacity="0" d="M35.15,34.8V22.52"/>
						<rect x="33.15" y="22.52" width="4" height="12.28"/>
					</g>
				</g>
			</g>
		</g>
		<g>
			<g>
				<g>
					<g>
						<path id="a25pSQzDdH_1_" fill-opacity="0" d="M29.11,42.98l-6.65-6.43v-6.14"/>
						<polygon points="27.72,44.418 20.46,37.398 20.46,30.41 24.46,30.41 24.46,35.702 30.5,41.542 						"/>
					</g>
				</g>
			</g>
		</g>
		<g>
			<g>
				<path id="ahrQ6qANe" d="M52.95,40.68l1.159,0.53l1.08,0.66l0.98,0.78l0.891,0.89l0.779,0.99l0.66,1.08l0.529,1.15l0.391,1.23
					l0.13,0.68H52.82l-0.301-0.56l-0.91-0.92l-0.879-0.45V40.1l1,0.19L52.95,40.68z"/>
			</g>
		</g>
		<g>
			<g>
				<g>
					<g>
						<path id="g6eZMybIym_1_" fill-opacity="0" d="M61.529,80.98c0-1.931,1.57-3.5,3.5-3.5c1.931,0,3.5,1.569,3.5,3.5
							c0,1.93-1.569,3.5-3.5,3.5C63.1,84.48,61.529,82.91,61.529,80.98z"/>
						<path d="M65.029,85.98c-2.757,0-5-2.243-5-5s2.243-5,5-5s5,2.243,5,5S67.786,85.98,65.029,85.98z M65.029,78.98
							c-1.103,0-2,0.897-2,2s0.897,2,2,2s2-0.897,2-2S66.132,78.98,65.029,78.98z"/>
					</g>
				</g>
			</g>
		</g>
		<g>
			<g>
				<g>
					<g>
						<path id="cog9iUegy_1_" fill-opacity="0" d="M65.029,65.2v12.28"/>
						<rect x="63.029" y="65.2" width="4" height="12.28"/>
					</g>
				</g>
			</g>
		</g>
		<g>
			<g>
				<g>
					<g>
						<path id="fqoNEn74P_1_" fill-opacity="0" d="M74.21,73.09c0-1.93,1.569-3.5,3.5-3.5s3.5,1.57,3.5,3.5s-1.569,3.5-3.5,3.5
							S74.21,75.02,74.21,73.09z"/>
						<path d="M77.71,78.09c-2.757,0-5-2.243-5-5s2.243-5,5-5s5,2.243,5,5S80.467,78.09,77.71,78.09z M77.71,71.09
							c-1.103,0-2,0.897-2,2s0.897,2,2,2s2-0.897,2-2S78.813,71.09,77.71,71.09z"/>
					</g>
				</g>
			</g>
		</g>
		<g>
			<g>
				<g>
					<g>
						<path id="a2db3qqDH_1_" fill-opacity="0" d="M71.061,57.02l6.649,6.431v6.14"/>
						<polygon points="79.71,69.59 75.71,69.59 75.71,64.298 69.67,58.457 72.451,55.582 79.71,62.603 						"/>
					</g>
				</g>
			</g>
		</g>
		<g>
			<g>
				<g>
					<g>
						<path id="d1MZfc0Urx_1_" fill-opacity="0" d="M25.79,27.49c0,1.93-1.57,3.5-3.5,3.5s-3.5-1.57-3.5-3.5
							c0-1.93,1.57-3.5,3.5-3.5S25.79,25.56,25.79,27.49z"/>
						<path d="M22.29,32.49c-2.757,0-5-2.243-5-5s2.243-5,5-5s5,2.243,5,5S25.047,32.49,22.29,32.49z M22.29,25.49
							c-1.103,0-2,0.897-2,2s0.897,2,2,2s2-0.897,2-2S23.393,25.49,22.29,25.49z"/>
					</g>
				</g>
			</g>
		</g>
	</g>
</g>
</svg>
