<?xml version="1.0" encoding="UTF-8" standalone="no"?>
<!DOCTYPE svg PUBLIC "-//W3C//DTD SVG 1.1//EN" "http://www.w3.org/Graphics/SVG/1.1/DTD/svg11.dtd">
<svg version="1.1" xmlns="http://www.w3.org/2000/svg" xmlns:xlink="http://www.w3.org/1999/xlink" preserveAspectRatio="xMidYMid meet" viewBox="0 0 100 100" width="100" height="100"><defs><path d="M53.92 19.77L55.2 19.96L56.45 20.2L57.69 20.5L58.91 20.84L60.11 21.23L61.28 21.68L62.43 22.16L63.56 22.7L64.66 23.27L65.74 23.89L66.78 24.55L67.8 25.26L68.78 26L69.74 26.78L70.66 27.6L71.55 28.45L72.4 29.34L73.22 30.26L74 31.22L74.74 32.2L75.45 33.22L76.11 34.26L76.73 35.34L77.3 36.44L77.84 37.57L78.32 38.72L78.77 39.89L79.16 41.09L79.5 42.31L79.8 43.55L80.04 44.8L80.23 46.08L80.37 47.37L80.46 48.68L80.48 50L80.46 51.32L80.37 52.63L80.23 53.92L80.04 55.2L79.8 56.45L79.5 57.69L79.16 58.91L78.77 60.11L78.32 61.28L77.84 62.43L77.3 63.56L76.73 64.66L76.11 65.74L75.45 66.78L74.74 67.8L74 68.78L73.22 69.74L72.4 70.66L71.55 71.55L70.66 72.4L69.74 73.22L68.78 74L67.8 74.74L66.78 75.45L65.74 76.11L64.66 76.73L63.56 77.3L62.43 77.84L61.28 78.32L60.11 78.77L58.91 79.16L57.69 79.5L56.45 79.8L55.2 80.04L53.92 80.23L52.63 80.37L51.32 80.46L50 80.48L48.68 80.46L47.37 80.37L46.08 80.23L44.8 80.04L43.55 79.8L42.31 79.5L41.09 79.16L39.89 78.77L38.72 78.32L37.57 77.84L36.44 77.3L35.34 76.73L34.26 76.11L33.22 75.45L32.2 74.74L31.22 74L30.26 73.22L29.34 72.4L28.45 71.55L27.6 70.66L26.78 69.74L26 68.78L25.26 67.8L24.55 66.78L23.89 65.74L23.27 64.66L22.7 63.56L22.16 62.43L21.68 61.28L21.23 60.11L20.84 58.91L20.5 57.69L20.2 56.45L19.96 55.2L19.77 53.92L19.63 52.63L19.54 51.32L19.52 50L19.54 48.68L19.63 47.37L19.77 46.08L19.96 44.8L20.2 43.55L20.5 42.31L20.84 41.09L21.23 39.89L21.68 38.72L22.16 37.57L22.7 36.44L23.27 35.34L23.89 34.26L24.55 33.22L25.26 32.2L26 31.22L26.78 30.26L27.6 29.34L28.45 28.45L29.34 27.6L30.26 26.78L31.22 26L32.2 25.26L33.22 24.55L34.26 23.89L35.34 23.27L36.44 22.7L37.57 22.16L38.72 21.68L39.89 21.23L41.09 20.84L42.31 20.5L43.55 20.2L44.8 19.96L46.08 19.77L47.37 19.63L48.68 19.54L50 19.52L51.32 19.54L52.63 19.63L52.63 19.63L53.92 19.77ZM46.09 26.98L44.83 27.22L43.59 27.54L42.38 27.92L41.2 28.36L40.06 28.87L38.94 29.43L37.86 30.05L36.82 30.73L35.82 31.45L34.85 32.23L33.93 33.06L33.06 33.93L32.23 34.85L31.45 35.82L30.73 36.82L30.05 37.86L29.43 38.94L28.87 40.06L28.36 41.2L27.92 42.38L27.54 43.59L27.22 44.83L26.98 46.09L26.79 47.37L26.69 48.68L26.65 50L26.69 51.32L26.79 52.63L26.98 53.91L27.22 55.17L27.54 56.41L27.92 57.62L28.36 58.8L28.87 59.94L29.43 61.06L30.05 62.14L30.73 63.18L31.45 64.18L32.23 65.15L33.06 66.07L33.93 66.94L34.85 67.77L35.82 68.55L36.82 69.27L37.86 69.95L38.94 70.57L40.06 71.13L41.2 71.64L42.38 72.08L43.59 72.46L44.83 72.78L46.09 73.02L47.37 73.21L48.68 73.31L50 73.35L51.32 73.31L52.63 73.21L53.91 73.02L55.17 72.78L56.41 72.46L57.62 72.08L58.8 71.64L59.94 71.13L61.06 70.57L62.14 69.95L63.18 69.27L64.18 68.55L65.15 67.77L66.07 66.94L66.94 66.07L67.77 65.15L68.55 64.18L69.27 63.18L69.95 62.14L70.57 61.06L71.13 59.94L71.64 58.8L72.08 57.62L72.46 56.41L72.78 55.17L73.02 53.91L73.21 52.63L73.31 51.32L73.35 50L73.31 48.68L73.21 47.37L73.02 46.09L72.78 44.83L72.46 43.59L72.08 42.38L71.64 41.2L71.13 40.06L70.57 38.94L69.95 37.86L69.27 36.82L68.55 35.82L67.77 34.85L66.94 33.93L66.07 33.06L65.15 32.23L64.18 31.45L63.18 30.73L62.14 30.05L61.06 29.43L59.94 28.87L58.8 28.36L57.62 27.92L56.41 27.54L55.17 27.22L53.91 26.98L52.63 26.79L51.32 26.69L50 26.65L48.68 26.69L47.37 26.79L47.37 26.79L46.09 26.98Z" id="a1CYtlZKtM"></path><path d="M53.75 41.77L54.84 42.38L55.83 43.13L56.71 44L57.46 45L58.07 46.09L58.52 47.27L58.8 48.52L58.9 49.84L58.8 51.15L58.52 52.41L58.07 53.59L57.46 54.68L56.71 55.67L55.83 56.55L54.84 57.3L53.75 57.91L52.57 58.36L51.31 58.64L50 58.73L48.69 58.64L47.43 58.36L46.25 57.91L45.16 57.3L44.17 56.55L43.29 55.67L42.54 54.68L41.93 53.59L41.48 52.41L41.2 51.15L41.1 49.84L41.2 48.52L41.48 47.27L41.93 46.09L42.54 45L43.29 44L44.17 43.13L45.16 42.38L46.25 41.77L47.43 41.32L48.69 41.04L50 40.94L51.31 41.04L52.57 41.32L52.57 41.32L53.75 41.77ZM46.56 48.25L46.27 49.7L46.56 51.15L47.36 52.34L48.55 53.14L50 53.43L51.45 53.14L52.64 52.34L53.44 51.15L53.73 49.7L53.44 48.25L52.64 47.07L51.45 46.27L50 45.97L48.55 46.27L47.36 47.07L47.36 47.07L46.56 48.25Z" id="d2bwZNNZ"></path><path d="M68.22 58.87L67.6 59.98L66.92 61.06L66.16 62.1L65.32 63.11L64.42 64.07L63.46 64.97L62.45 65.81L61.41 66.57L60.33 67.26L59.22 67.87L59.16 67.9L55.62 61.07L53.52 57.01L53.59 56.98L54.68 56.29L55.68 55.42L56.55 54.41L57.24 53.32L57.32 53.15L61.42 55.27L68.25 58.81L68.25 58.81L68.22 58.87ZM44.32 55.42L45.32 56.29L46.42 56.98L46.48 57.01L44.38 61.07L40.84 67.9L40.78 67.87L39.67 67.26L38.59 66.57L37.55 65.81L36.55 64.97L35.58 64.07L34.68 63.11L33.84 62.1L33.08 61.06L32.4 59.98L31.78 58.87L31.75 58.81L38.58 55.27L42.68 53.15L42.76 53.32L43.45 54.41L43.45 54.41L44.32 55.42ZM46.33 42.41L45.24 43.1L44.23 43.97L43.37 44.97L42.67 46.07L42.64 46.14L38.58 44.03L31.75 40.49L31.78 40.43L32.4 39.32L33.09 38.25L33.85 37.2L34.68 36.2L35.58 35.23L36.55 34.33L37.55 33.5L38.59 32.74L39.67 32.05L40.78 31.43L40.84 31.4L44.38 38.23L46.5 42.33L46.5 42.33L46.33 42.41ZM61.41 32.74L62.45 33.5L63.45 34.33L64.42 35.23L65.32 36.2L66.16 37.2L66.92 38.25L67.6 39.32L68.22 40.43L68.25 40.49L61.42 44.03L57.36 46.14L57.33 46.07L56.63 44.97L55.77 43.97L54.76 43.1L53.67 42.41L53.5 42.33L55.62 38.23L59.16 31.4L59.22 31.43L60.33 32.05L60.33 32.05L61.41 32.74Z" id="e81V4zJ3H"></path></defs><g><g><g><use xlink:href="#a1CYtlZKtM" opacity="1" fill="#000000" fill-opacity="1"></use></g><g><use xlink:href="#d2bwZNNZ" opacity="1" fill="#000000" fill-opacity="1"></use></g><g><use xlink:href="#e81V4zJ3H" opacity="1" fill="#000000" fill-opacity="1"></use></g></g></g></svg>