<?xml version="1.0" encoding="utf-8"?>
<!-- Generator: Adobe Illustrator 16.0.0, SVG Export Plug-In . SVG Version: 6.00 Build 0)  -->
<!DOCTYPE svg PUBLIC "-//W3C//DTD SVG 1.1//EN" "http://www.w3.org/Graphics/SVG/1.1/DTD/svg11.dtd">
<svg version="1.1" id="Layer_1" xmlns="http://www.w3.org/2000/svg" xmlns:xlink="http://www.w3.org/1999/xlink" x="0px" y="0px"
	 width="100px" height="100px" viewBox="0 0 100 100" enable-background="new 0 0 100 100" xml:space="preserve">
<g>
	<g>
		<g>
			<g>
				<g>
					<g>
						<path id="gi771Vxoz_1_" fill-opacity="0" d="M61.74,77.62l-0.02,0.19L61.7,78l-0.03,0.189l-0.04,0.181l-0.05,0.19l-0.061,0.18
							l-0.06,0.17l-0.069,0.17l-0.08,0.17l-0.09,0.16l-0.101,0.16L61.02,79.72l-0.1,0.15l-0.12,0.14l-0.12,0.141l-0.13,0.13
							l-0.13,0.13l-0.141,0.12l-0.139,0.12l-0.15,0.1l-0.15,0.1l-0.16,0.101l-0.16,0.09l-0.17,0.08l-0.17,0.069l-0.17,0.061
							l-0.18,0.061l-0.189,0.049L58.46,81.4l-0.19,0.029L58.08,81.45l-0.189,0.02h-0.201H27.63h-0.19l-0.2-0.02l-0.19-0.021
							L26.86,81.4l-0.18-0.041l-0.19-0.049l-0.17-0.061l-0.18-0.061l-0.17-0.069l-0.17-0.08l-0.16-0.09l-0.16-0.101l-0.15-0.1
							l-0.15-0.1l-0.14-0.12l-0.14-0.12l-0.13-0.13l-0.13-0.13l-0.12-0.141l-0.11-0.14l-0.11-0.15l-0.1-0.149l-0.1-0.16l-0.08-0.16
							l-0.08-0.17l-0.08-0.17l-0.06-0.17l-0.06-0.18l-0.05-0.19l-0.04-0.181L23.62,78l-0.02-0.189l-0.01-0.19l-0.01-0.2V32.56h8.84
							v14.95l0.03,0.48l0.1,0.46l0.17,0.43l0.22,0.4l0.27,0.36l0.32,0.33l0.37,0.271l0.4,0.22l0.43,0.17l0.46,0.101l0.48,0.029h0.99
							l0.48-0.029l0.46-0.101l0.43-0.17l0.4-0.22l0.37-0.271l0.32-0.33l0.27-0.36l0.22-0.4l0.17-0.43l0.1-0.46l0.03-0.48V32.56h9.63
							v7.51l0.05,0.49l0.17,0.46l0.25,0.4l0.34,0.33l0.4,0.26l0.45,0.16l0.5,0.06h1.92l0.5-0.06l0.45-0.16l0.41-0.26l0.33-0.33
							l0.26-0.4l0.16-0.46l0.06-0.49v-7.51h5.95v44.86V77.62z"/>
						<path d="M57.968,82.97l-31.622-0.147l-1.441-0.564L23.5,81.125l-0.821-1.204l-0.362-0.889l-0.208-1.064l-0.026-0.475
							L22.08,31.06h11.84l0.019,16.717l0.141,0.463l0.272,0.424l0.354,0.308l0.461,0.218l0.229,0.05l0.364,0.022l1.166-0.021
							l0.463-0.142l0.421-0.266l0.314-0.369l0.213-0.453l0.05-0.23l0.023-0.367L38.41,31.06h12.63l0.022,9.159l0.122,0.251
							l0.234,0.186l0.126,0.045l0.245,0.029l2.119-0.077l0.229-0.182l0.122-0.251l0.029-0.24V31.06h8.95l-0.089,47.366l-0.372,1.221
							l-0.723,1.202l-1.389,1.252l-0.922,0.478l-1.248,0.334L57.968,82.97z M27.513,79.97l31.019-0.142l0.869-0.521l0.568-0.73
							l0.271-1.033V34.06h-2.95l-0.011,6.191l-0.132,0.802l-0.319,0.784l-0.457,0.644l-0.588,0.537l-0.71,0.406l-0.774,0.236
							L53.62,43.73l-2.099-0.011l-0.824-0.136l-0.764-0.315l-0.627-0.441l-0.568-0.612l-0.385-0.675l-0.255-0.828L48.04,40.07v-6.01
							h-6.63l-0.064,14.249l-0.171,0.693l-0.25,0.6l-0.335,0.579l-0.394,0.505l-0.51,0.495l-0.534,0.375l-0.57,0.299l-0.661,0.241
							l-0.689,0.132l-0.48,0.029L35.67,52.26l-0.8-0.063l-0.691-0.171l-0.601-0.251l-0.563-0.323l-0.562-0.437L32.01,50.54
							l-0.385-0.538l-0.299-0.569l-0.242-0.666l-0.131-0.683l-0.03-0.48L30.92,34.06h-5.84l0.074,43.986l0.582,1.079l0.737,0.574
							L27.513,79.97z"/>
					</g>
				</g>
			</g>
		</g>
		<g>
			<g>
				<path id="a2sxM5q4BM" d="M32.45,47.99l0.1,0.46l0.17,0.43l0.22,0.4l0.27,0.36l0.32,0.33l0.37,0.271l0.4,0.22l0.43,0.17
					l0.46,0.101l0.48,0.029h0.99l0.48-0.029l0.46-0.101l0.43-0.17l0.4-0.22l0.37-0.271l0.32-0.33l0.27-0.36l0.22-0.4l0.17-0.43
					l0.1-0.46l0.03-0.48V36.77h9.63v3.3l0.05,0.49l0.17,0.46l0.25,0.4l0.34,0.33l0.4,0.26l0.45,0.16l0.5,0.06h1.92l0.5-0.06
					l0.45-0.16l0.41-0.26l0.33-0.33l0.26-0.4l0.16-0.46l0.06-0.49v-3.3h1.92V76.9H28.35V36.77h4.07v10.74L32.45,47.99z M49.62,68.91
					L49,69.8l-0.23,1.091L49,71.98l0.62,0.879l0.93,0.601l1.14,0.22l1.141-0.22l0.93-0.601l0.62-0.879l0.229-1.09L54.38,69.8
					l-0.62-0.89l-0.93-0.59L51.689,68.1l-1.14,0.221L49.62,68.91z M43.95,58.96l-0.94,0.91l-0.62,1.14l-0.23,1.32l0.23,1.311
					l0.62,1.149l0.94,0.899l1.2,0.591l1.38,0.22l1.37-0.22l1.2-0.591l0.94-0.899l0.62-1.149l0.23-1.311l-0.23-1.32l-0.62-1.14
					l-0.94-0.91l-1.2-0.59l-1.37-0.21l-1.38,0.21L43.95,58.96z M50.45,52l-0.53,0.75l-0.19,0.91l0.19,0.92l0.53,0.75l0.79,0.51
					l0.949,0.18l0.961-0.18l0.789-0.51l0.531-0.75l0.189-0.92l-0.189-0.91L53.939,52l-0.789-0.51l-0.961-0.18l-0.949,0.18L50.45,52z
					"/>
			</g>
		</g>
		<g>
			<g>
				<g>
					<g>
						<path id="a1lHZKcfpy_1_" fill-opacity="0" d="M41.42,18.59l0.42,0.07l0.41,0.08l0.4,0.1l0.4,0.13l0.38,0.14l0.38,0.16
							l0.37,0.17l0.35,0.2l0.35,0.22l0.34,0.23l0.33,0.25l0.32,0.27l0.32,0.29l0.3,0.31l0.29,0.33l0.29,0.35l0.27,0.36l0.27,0.39
							l0.26,0.4l0.9-0.38l0.87-0.35l0.83-0.3l0.799-0.26l0.771-0.22l0.739-0.18l0.701-0.14l0.67-0.1l0.64-0.06l0.601-0.02
							l0.569,0.03l0.54,0.06l0.51,0.1l0.471,0.14l0.439,0.19l0.4,0.22l0.38,0.26l0.34,0.31l0.3,0.34l0.28,0.38l0.271,0.39l0.25,0.4
							l0.229,0.42l0.21,0.44l0.189,0.46l0.181,0.47l0.159,0.49l0.15,0.5l0.12,0.52l0.11,0.53l0.09,0.56l0.08,0.57l0.061,0.58
							l0.039,0.6l0.02,0.62v0.63l-0.01,0.65l-0.029,0.67l-5.49-0.01v7.52l-0.061,0.49l-0.16,0.46l-0.26,0.4l-0.33,0.33l-0.399,0.26
							l-0.46,0.16l-0.49,0.06h-1.93l-0.49-0.06l-0.46-0.16l-0.399-0.26l-0.34-0.33l-0.25-0.4l-0.16-0.46L50,40.07v-7.54L39.91,32.51
							v15l-0.03,0.48l-0.1,0.46l-0.17,0.43l-0.22,0.4l-0.27,0.36l-0.32,0.33l-0.37,0.271l-0.4,0.22l-0.43,0.17l-0.46,0.101
							l-0.48,0.029h-0.99l-0.48-0.029l-0.46-0.101l-0.43-0.17l-0.4-0.22l-0.37-0.271l-0.32-0.33l-0.27-0.36l-0.22-0.4l-0.17-0.43
							l-0.1-0.46l-0.03-0.48V32.49l-8.84-0.021v-0.95l0.01-0.91l0.04-0.86l0.05-0.82l0.07-0.78l0.09-0.73l0.11-0.68l0.13-0.64
							l0.14-0.6l0.17-0.55l0.18-0.51l0.21-0.46L25,23.56l0.24-0.38l0.26-0.33l0.28-0.29l0.3-0.24l0.32-0.19l0.34-0.16l0.34-0.12
							l0.35-0.11l0.34-0.1l0.35-0.08l0.34-0.06l0.34-0.06l0.35-0.04l0.34-0.02l0.34-0.01l0.34,0.01l0.34,0.01l0.33,0.04l0.34,0.05
							l0.34,0.06l0.33,0.07l0.34,0.09l0.33,0.11l0.34,0.12l0.33,0.13l0.44-0.41l0.44-0.38l0.44-0.36l0.43-0.33l0.44-0.31l0.43-0.29
							l0.44-0.25l0.43-0.24l0.44-0.2l0.43-0.19l0.43-0.15l0.43-0.14l0.43-0.1l0.43-0.09l0.43-0.05l0.43-0.03l0.43-0.01l0.43,0.02
							L41.42,18.59z"/>
						<path d="M36.706,52.26l-1.836-0.063l-0.691-0.171l-0.601-0.251l-0.563-0.323l-0.562-0.437L32.01,50.54l-0.385-0.538
							l-0.299-0.569l-0.242-0.666l-0.131-0.683l-0.03-0.48L30.92,33.987l-8.84-0.021l0.051-4.286l0.22-2.443l0.436-2.18l0.418-1.24
							l0.527-1.059l0.688-0.95l0.894-0.778l0.928-0.476l1.543-0.457l1.617-0.215l0.385-0.012l1.61,0.125l1.455,0.345l1.175-0.951
							l1.042-0.714l1.987-0.992l1.443-0.435l1.026-0.169l1.051-0.051l1.09,0.081l1.446,0.303l1.279,0.475l0.883,0.451l1.181,0.806
							l0.741,0.644l1.218,1.397l1.544-0.587l1.669-0.511l1.558-0.349l1.463-0.183l0.756-0.027l1.383,0.119l1.287,0.335l1.093,0.55
							l0.542,0.389l0.837,0.868l0.865,1.266l0.521,1.009l0.603,1.602l0.423,1.708l0.254,1.86l0.066,2.006l-0.104,2.822l-5.426-0.01
							l-0.012,6.201l-0.132,0.8l-0.319,0.784L56.83,42.48l-0.573,0.527l-0.724,0.419l-0.771,0.232L54.09,43.73l-2.112-0.011
							l-0.801-0.132l-0.785-0.319l-0.626-0.44l-0.568-0.612l-0.395-0.702l-0.232-0.771L48.5,40.07v-6.042l-7.09-0.015l-0.064,14.296
							l-0.171,0.693l-0.25,0.6l-0.335,0.579l-0.394,0.505l-0.51,0.495l-0.534,0.375l-0.57,0.299l-0.661,0.241l-0.689,0.132
							L36.706,52.26z M35.397,49.24l0.364,0.022l1.4-0.072l0.462-0.218l0.354-0.309l0.272-0.422l0.141-0.458l0.023-0.367
							L38.41,31.007l13.09,0.026l0.029,9.185l0.116,0.252l0.229,0.183l0.137,0.048l0.24,0.029l2.123-0.077l0.223-0.182l0.123-0.253
							l0.029-0.24v-8.931l5.529,0.01l-0.056-1.569l-0.313-2.032l-0.388-1.352l-0.507-1.188l-0.845-1.292l-0.405-0.415l-0.507-0.311
							l-0.608-0.22l-0.857-0.127l-0.414-0.02l-1.089,0.072l-1.218,0.217l-1.393,0.372l-1.53,0.528l-2.853,1.189l-1.673-2.413
							l-0.762-0.776l-0.822-0.619l-0.856-0.469l-0.945-0.35l-1.012-0.205l-0.68-0.048l-1.032,0.071l-1.414,0.395l-1.5,0.759
							l-1.582,1.175l-1.499,1.371l-2.312-0.794l-1.422-0.138l-1.406,0.167l-1.277,0.419l-0.312,0.214l-0.326,0.376l-0.503,0.95
							l-0.294,0.894L25.32,27.66l-0.193,2.182l-0.042,1.131l8.834,0.021l0.019,16.784l0.141,0.463l0.272,0.423l0.354,0.309
							l0.461,0.218L35.397,49.24z"/>
					</g>
				</g>
			</g>
		</g>
		<g>
			<g>
				<path id="a4TNMArVJT" d="M72,36.39l0.439,0.09l0.42,0.13l0.41,0.16l0.391,0.19l0.369,0.23l0.351,0.25l0.33,0.28l0.3,0.3
					l0.28,0.33l0.25,0.35l0.229,0.37l0.19,0.39l0.16,0.41l0.13,0.42l0.09,0.44l0.061,0.45l0.02,0.46v29.34l-0.02,0.459l-0.061,0.451
					l-0.09,0.43l-0.13,0.43l-0.16,0.4l-0.19,0.39l-0.229,0.37l-0.25,0.35l-0.28,0.33l-0.3,0.311l-0.33,0.279l-0.351,0.25
					L73.66,75.65L73.27,75.85l-0.41,0.16l-0.42,0.131L72,76.23l-0.45,0.06l-0.46,0.021h-5.82V70.68h3.03l0.39-0.02l0.381-0.07
					l0.369-0.12l0.34-0.159l0.32-0.19l0.291-0.229l0.27-0.271l0.23-0.29l0.189-0.32l0.16-0.34l0.119-0.37l0.07-0.38l0.021-0.39
					V44.46l-0.021-0.39l-0.07-0.38l-0.119-0.37l-0.16-0.34l-0.189-0.32l-0.23-0.29l-0.27-0.27L70.1,41.87l-0.32-0.19l-0.34-0.16
					L69.07,41.4l-0.381-0.07l-0.39-0.02h-3.03v-5h5.82l0.46,0.02L72,36.39z"/>
			</g>
		</g>
	</g>
</g>
</svg>
