<?xml version="1.0" encoding="UTF-8" standalone="no"?>
<!DOCTYPE svg PUBLIC "-//W3C//DTD SVG 1.1//EN" "http://www.w3.org/Graphics/SVG/1.1/DTD/svg11.dtd">
<svg version="1.1" xmlns="http://www.w3.org/2000/svg" xmlns:xlink="http://www.w3.org/1999/xlink" preserveAspectRatio="xMidYMid meet" viewBox="0 0 100 100" width="100" height="100"><defs><path d="M65.73 39.43L67.01 39.73L68.26 40.1L69.48 40.55L70.66 41.07L71.8 41.66L72.89 42.32L73.94 43.04L74.95 43.82L75.9 44.67L76.8 45.57L77.64 46.52L78.43 47.52L79.15 48.57L79.81 49.67L80.4 50.81L80.92 51.99L81.37 53.2L81.74 54.45L82.03 55.74L82.25 57.05L82.38 58.38L82.42 59.74L82.38 61.1L82.25 62.44L82.03 63.75L81.74 65.03L81.37 66.28L80.92 67.5L80.4 68.68L79.81 69.82L79.15 70.91L78.43 71.96L77.64 72.97L76.8 73.92L75.9 74.82L74.95 75.66L73.94 76.45L72.89 77.17L71.8 77.83L70.66 78.42L69.48 78.94L68.26 79.39L67.01 79.76L65.73 80.05L64.42 80.27L63.08 80.4L61.72 80.44L60.36 80.4L59.03 80.27L57.71 80.05L56.43 79.76L55.18 79.39L53.97 78.94L52.79 78.42L51.65 77.83L50.55 77.17L49.5 76.45L48.5 75.66L47.54 74.82L46.65 73.92L45.8 72.97L45.02 71.96L44.3 70.91L43.64 69.82L43.39 69.34L35.23 69.34L35.23 53.74L41.92 53.74L42.08 53.2L42.53 51.99L43.05 50.81L43.64 49.67L44.3 48.57L45.02 47.52L45.8 46.52L46.65 45.57L47.54 44.67L48.5 43.82L49.5 43.04L50.55 42.32L51.65 41.66L52.79 41.07L53.97 40.55L55.18 40.1L56.43 39.73L57.71 39.43L59.03 39.22L60.36 39.09L61.72 39.04L63.08 39.09L64.42 39.22L64.42 39.22L65.73 39.43ZM71.3 63.89L70.7 64.99L69.95 65.98L69.07 66.86L68.08 67.6L66.98 68.21L65.8 68.66L65.11 68.82L66.09 73.46L66.31 74.52L67.14 74.33L68.37 73.93L69.54 73.44L70.66 72.85L71.72 72.16L72.71 71.39L73.64 70.54L74.49 69.62L75.25 68.63L75.94 67.57L76.53 66.45L77.03 65.27L77.42 64.05L77.54 63.55L72.1 60.6L72.03 61.46L71.75 62.71L71.75 62.71L71.3 63.89Z" id="fsF7DJFvb"></path><path d="M58.12 28.18L58.93 28.62L59.63 29.2L60.21 29.91L60.65 30.72L60.93 31.61L61.03 32.57L60.93 33.54L60.65 34.43L60.21 35.24L59.63 35.95L58.93 36.53L58.12 36.97L57.22 37.25L56.26 37.34L49.4 37.34L48.43 37.25L47.54 36.97L46.73 36.53L46.02 35.95L45.44 35.24L45 34.43L44.72 33.54L44.63 32.57L44.72 31.61L45 30.72L45.44 29.91L46.02 29.2L46.73 28.62L47.54 28.18L48.43 27.9L49.4 27.81L56.26 27.81L57.22 27.9L58.12 28.18ZM49.44 31.13L48.92 31.48L48.57 32L48.44 32.64L48.57 33.27L48.92 33.79L49.44 34.14L50.07 34.27L55.8 34.27L56.44 34.14L56.96 33.79L57.31 33.27L57.44 32.64L57.31 32L56.96 31.48L56.44 31.13L55.8 31L50.07 31L49.44 31.13Z" id="i1uuUYsHSi"></path><path d="M21.07 40.2L24.76 40.2L24.76 44.89L21.07 44.89L21.07 40.2Z" id="i7wRUVaBO"></path><path d="M31.85 25.08L34.46 27.69L31.14 31L28.53 28.39L31.85 25.08Z" id="aXuAV59yJ"></path><path d="M29.19 57.48L26.58 60.09L23.27 56.77L25.87 54.16L29.19 57.48Z" id="c1l40bFDwI"></path><path d="M48.44 28.39L45.83 31L42.52 27.69L45.12 25.08L48.44 28.39Z" id="e45pSRsMEu"></path><path d="M43.86 19.93L44.67 20.37L45.37 20.95L45.95 21.66L46.39 22.47L46.67 23.36L46.77 24.32L46.67 25.29L46.39 26.18L45.95 26.99L45.37 27.7L44.67 28.28L43.86 28.72L42.96 29L42 29.09L35.14 29.09L34.18 29L33.28 28.72L32.47 28.28L31.77 27.7L31.18 26.99L30.74 26.18L30.47 25.29L30.37 24.32L30.47 23.36L30.74 22.47L31.18 21.66L31.77 20.95L32.47 20.37L33.28 19.93L34.18 19.65L35.14 19.56L42 19.56L42.96 19.65L43.86 19.93ZM35.18 22.88L34.66 23.23L34.31 23.75L34.18 24.39L34.31 25.02L34.66 25.54L35.18 25.89L35.82 26.02L41.55 26.02L42.18 25.89L42.7 25.54L43.05 25.02L43.18 24.39L43.05 23.75L42.7 23.23L42.18 22.88L41.55 22.75L35.82 22.75L35.18 22.88Z" id="a4cjp7O5EU"></path><path d="M29.17 27.88L29.89 28.29L30.55 28.85L31.11 29.51L31.52 30.23L31.79 31.01L31.93 31.81L31.93 32.62L31.79 33.43L31.52 34.2L31.11 34.93L30.55 35.59L25.7 40.44L25.04 40.99L24.31 41.41L23.54 41.68L22.73 41.82L21.92 41.82L21.12 41.68L20.34 41.41L19.62 40.99L18.96 40.44L18.41 39.78L17.99 39.06L17.72 38.28L17.58 37.48L17.58 36.67L17.72 35.86L17.99 35.09L18.41 34.36L18.96 33.7L23.81 28.85L24.47 28.29L25.2 27.88L25.97 27.61L26.78 27.47L27.59 27.47L28.39 27.61L29.17 27.88ZM25.75 31.43L21.7 35.48L21.34 36.02L21.22 36.64L21.34 37.25L21.7 37.79L22.24 38.15L22.85 38.27L23.47 38.15L24.01 37.79L28.06 33.74L28.42 33.2L28.54 32.58L28.42 31.97L28.06 31.43L27.52 31.07L26.9 30.95L26.29 31.07L25.75 31.43Z" id="d1OQYBhXCS"></path><path d="M24.77 43.19L25.58 43.63L26.28 44.22L26.86 44.92L27.3 45.73L27.58 46.63L27.68 47.59L27.68 54.45L27.58 55.41L27.3 56.31L26.86 57.12L26.28 57.82L25.58 58.41L24.77 58.85L23.87 59.12L22.91 59.22L21.95 59.12L21.06 58.85L20.25 58.41L19.54 57.82L18.96 57.12L18.52 56.31L18.24 55.41L18.14 54.45L18.14 47.59L18.24 46.63L18.52 45.73L18.96 44.92L19.54 44.22L20.25 43.63L21.06 43.19L21.95 42.92L22.91 42.82L23.87 42.92L24.77 43.19ZM21.82 46.89L21.47 47.41L21.34 48.04L21.34 53.77L21.47 54.41L21.82 54.93L22.34 55.28L22.97 55.41L23.61 55.28L24.13 54.93L24.48 54.41L24.61 53.77L24.61 48.04L24.48 47.41L24.13 46.89L23.61 46.54L22.97 46.41L22.34 46.54L21.82 46.89Z" id="i8dMxLuMx"></path><path d="M31.03 59.82L30.4 59.95L29.88 60.3L29.53 60.82L29.4 61.46L29.53 62.09L29.88 62.61L30.4 62.96L31.03 63.09L33.07 63.09L33.07 66.16L30.35 66.16L29.39 66.07L28.5 65.79L27.69 65.35L26.98 64.77L26.4 64.06L25.96 63.25L25.68 62.36L25.59 61.39L25.68 60.43L25.96 59.54L26.4 58.73L26.98 58.02L27.69 57.44L28.5 57L29.39 56.72L30.35 56.63L33.07 56.63L33.07 59.82L31.03 59.82Z" id="a1Bt8mANa3"></path></defs><g><g><g><use xlink:href="#fsF7DJFvb" opacity="1" fill="#000000" fill-opacity="1"></use></g><g><use xlink:href="#i1uuUYsHSi" opacity="1" fill="#000000" fill-opacity="1"></use></g><g><use xlink:href="#i7wRUVaBO" opacity="1" fill="#000000" fill-opacity="1"></use></g><g><use xlink:href="#aXuAV59yJ" opacity="1" fill="#000000" fill-opacity="1"></use></g><g><use xlink:href="#c1l40bFDwI" opacity="1" fill="#000000" fill-opacity="1"></use></g><g><use xlink:href="#e45pSRsMEu" opacity="1" fill="#000000" fill-opacity="1"></use></g><g><use xlink:href="#a4cjp7O5EU" opacity="1" fill="#000000" fill-opacity="1"></use></g><g><use xlink:href="#d1OQYBhXCS" opacity="1" fill="#000000" fill-opacity="1"></use></g><g><use xlink:href="#i8dMxLuMx" opacity="1" fill="#000000" fill-opacity="1"></use></g><g><use xlink:href="#a1Bt8mANa3" opacity="1" fill="#000000" fill-opacity="1"></use></g></g></g></svg>