<?xml version="1.0" encoding="UTF-8" standalone="no"?>
<!DOCTYPE svg PUBLIC "-//W3C//DTD SVG 1.1//EN" "http://www.w3.org/Graphics/SVG/1.1/DTD/svg11.dtd">
<svg version="1.1" xmlns="http://www.w3.org/2000/svg" xmlns:xlink="http://www.w3.org/1999/xlink" preserveAspectRatio="xMidYMid meet" viewBox="0 0 100 100" width="100" height="100"><defs><path d="M50.76 19.2L50.98 19.22L51.2 19.24L51.41 19.26L51.62 19.29L51.83 19.31L52.03 19.33L52.23 19.36L52.43 19.38L52.63 19.41L52.82 19.43L53.01 19.46L53.19 19.49L53.38 19.51L53.55 19.54L53.73 19.57L53.9 19.59L54.07 19.62L54.24 19.65L54.4 19.68L54.57 19.71L54.72 19.74L54.88 19.77L55.03 19.8L55.18 19.83L55.32 19.86L55.46 19.89L55.6 19.92L55.74 19.96L55.87 19.99L56 20.02L56.13 20.05L56.25 20.09L56.37 20.12L56.49 20.16L56.6 20.19L56.72 20.23L56.88 20.28L57.05 20.34L57.21 20.39L57.38 20.45L57.54 20.51L57.71 20.58L57.87 20.64L58.04 20.7L58.2 20.77L58.36 20.83L58.53 20.9L58.69 20.97L58.85 21.04L59.01 21.12L59.17 21.19L59.33 21.26L59.49 21.34L59.65 21.42L59.81 21.5L59.97 21.58L60.13 21.66L60.28 21.74L60.44 21.83L60.6 21.91L60.75 22L60.91 22.09L61.06 22.18L61.22 22.27L61.37 22.36L61.53 22.46L61.68 22.55L61.83 22.65L61.98 22.75L62.13 22.85L62.28 22.95L62.43 23.05L62.58 23.15L62.73 23.26L84.97 39.12L85.29 39.36L85.59 39.61L85.87 39.87L86.13 40.14L86.38 40.43L86.61 40.72L86.83 41.02L87.02 41.33L87.2 41.65L87.37 41.97L87.52 42.31L87.65 42.64L87.76 42.98L87.85 43.33L87.93 43.68L88 44.03L88.04 44.39L88.07 44.74L88.08 45.1L88.08 45.45L88.05 45.81L88.01 46.17L87.96 46.52L87.88 46.87L87.79 47.22L87.69 47.56L87.56 47.9L87.42 48.23L87.26 48.56L87.09 48.88L86.9 49.19L86.69 49.5L86.46 49.8L86.22 50.08L85.96 50.36L85.68 50.63L85.39 50.88L85.08 51.13L76.85 57.21L23.67 57.21L14.58 50.1L14.3 49.87L14.03 49.63L13.78 49.37L13.55 49.11L13.33 48.84L13.13 48.56L12.94 48.27L12.77 47.98L12.62 47.68L12.48 47.38L12.35 47.06L12.24 46.75L12.15 46.43L12.07 46.11L12.01 45.78L11.96 45.45L11.93 45.12L11.92 44.8L11.92 44.47L11.93 44.14L11.97 43.81L12.01 43.48L12.07 43.15L12.15 42.83L12.25 42.51L12.35 42.2L12.48 41.89L12.62 41.59L12.77 41.29L12.94 40.99L13.13 40.71L13.33 40.43L13.54 40.16L13.77 39.9L14.02 39.65L14.28 39.41L14.56 39.18L14.85 38.97L37.16 23.2L37.37 23.06L37.59 22.91L37.81 22.77L38.04 22.63L38.29 22.5L38.53 22.36L38.79 22.23L39.05 22.1L39.32 21.97L39.6 21.84L39.88 21.72L40.17 21.6L40.47 21.48L40.78 21.36L41.09 21.24L41.41 21.13L41.74 21.02L42.07 20.91L42.41 20.8L42.76 20.69L43.12 20.59L43.49 20.49L43.86 20.39L44.24 20.29L44.62 20.2L45.02 20.1L45.42 20.01L45.83 19.93L46.24 19.84L46.66 19.75L47.1 19.67L47.53 19.59L47.98 19.51L48.43 19.44L48.89 19.36L49.36 19.29L49.83 19.22L50.31 19.16L50.54 19.18L50.76 19.2ZM35.49 38.8L42.75 45.06L41.88 49.57L18.85 49.57L24.74 54.23L75.12 54.23L81.68 49.57L58.13 49.57L57.25 45.06L64.51 38.8L54.48 37.51L50 29.46L45.52 37.51L35.49 38.8Z" id="cprQwqPRa"></path><path d="M76.1 68.31L75.62 68.88L75.13 69.44L74.64 69.99L74.12 70.53L73.6 71.05L73.07 71.57L72.53 72.07L71.97 72.56L71.41 73.03L70.83 73.5L70.25 73.95L69.65 74.39L69.05 74.81L68.44 75.22L67.82 75.62L67.19 76.01L66.55 76.38L65.9 76.74L65.24 77.08L64.58 77.41L63.91 77.73L63.23 78.03L62.55 78.32L61.85 78.59L60.84 78.97L60.04 79.26L59.24 79.53L58.43 79.77L57.62 79.99L56.8 80.18L55.98 80.35L55.15 80.49L54.32 80.61L53.49 80.71L52.66 80.78L51.83 80.82L50.99 80.84L50.16 80.84L49.32 80.82L48.49 80.77L47.66 80.69L46.83 80.59L46 80.47L45.17 80.32L44.35 80.15L43.54 79.95L42.72 79.73L41.92 79.49L41.12 79.22L40.32 78.92L39.76 78.71L39.06 78.43L38.36 78.13L37.67 77.82L36.99 77.49L36.31 77.15L35.65 76.79L34.99 76.42L34.34 76.04L33.7 75.64L33.07 75.23L32.45 74.8L31.84 74.36L31.24 73.91L30.65 73.44L30.06 72.96L29.49 72.47L28.94 71.96L28.39 71.44L27.85 70.91L27.32 70.37L26.81 69.81L26.31 69.25L25.82 68.67L25.34 68.08L24.88 67.48L24.06 66.4L24.06 60.5L76.56 60.5L76.56 67.73L76.1 68.31ZM55.06 76.2L55.28 76.17L55.92 76.06L56.57 75.93L57.21 75.78L57.85 75.61L60.71 74.81L60.71 64.03L55.06 64.03L55.06 76.2ZM64.01 73.82L64.16 73.77L64.71 73.56L65.25 73.34L65.78 73.11L66.31 72.86L66.83 72.6L67.34 72.33L67.84 72.04L68.34 71.74L68.83 71.43L69.32 71.1L69.79 70.77L70.26 70.42L70.71 70.06L71.16 69.68L71.6 69.3L72.03 68.9L72.64 68.33L72.64 64.03L64.01 64.03L64.01 73.82Z" id="afI7EYgJ4"></path><path d="M59.88 40.2L55.01 44.4L56.16 50.34L50.15 47.53L44.13 50.34L45.28 44.4L40.42 40.2L47.14 39.33L50.15 33.94L53.16 39.33L59.88 40.2ZM45.58 41.66L47.83 43.6L47.3 46.34L50.07 45.04L52.85 46.34L52.32 43.6L54.56 41.66L51.46 41.26L50.07 38.77L48.69 41.26L45.58 41.66Z" id="b6r46a9sw"></path></defs><g><g><g><use xlink:href="#cprQwqPRa" opacity="1" fill="#000000" fill-opacity="1"></use></g><g><use xlink:href="#afI7EYgJ4" opacity="1" fill="#000000" fill-opacity="1"></use></g><g><use xlink:href="#b6r46a9sw" opacity="1" fill="#000000" fill-opacity="1"></use></g></g></g></svg>