<?xml version="1.0" encoding="UTF-8" standalone="no"?>
<!DOCTYPE svg PUBLIC "-//W3C//DTD SVG 1.1//EN" "http://www.w3.org/Graphics/SVG/1.1/DTD/svg11.dtd">
<svg version="1.1" xmlns="http://www.w3.org/2000/svg" xmlns:xlink="http://www.w3.org/1999/xlink" preserveAspectRatio="xMidYMid meet" viewBox="0 0 100 100" width="100" height="100"><defs><path d="M36.93 30.91C36.93 34.65 33.9 37.68 30.16 37.68C26.43 37.68 23.4 34.65 23.4 30.91C23.4 27.18 26.43 24.15 30.16 24.15C33.9 24.15 36.93 27.18 36.93 30.91Z" id="amPDejJAn"></path><path d="M39.93 40.19L27.18 41.28C24.57 49.24 22.93 54.22 22.28 56.22C21.11 59.78 22.22 63.69 25.07 66.12C25.92 66.84 28.05 68.64 31.44 71.53C29.37 71.53 28.08 71.53 27.56 71.53C25.26 71.53 23.4 73.39 23.4 75.69C23.4 76.43 23.4 74.86 23.4 75.69C23.4 77.72 25.04 79.36 27.06 79.36C31.69 79.36 38.13 79.36 41.81 79.36C45.2 79.36 47.09 75.45 44.99 72.8C43.52 70.95 39.87 66.33 34.01 58.94L36.18 48.78C40.98 48.01 43.98 47.53 45.17 47.34C47.38 46.99 48.82 44.84 48.31 42.66C47.7 40.1 46.69 35.88 46.05 33.17C45.61 31.33 43.79 30.16 41.93 30.55C41.23 30.69 42.6 30.41 41.93 30.55C39.98 30.95 38.69 32.83 39.02 34.8C39.14 35.52 39.45 37.32 39.93 40.19Z" id="chWIT9Ycn"></path><path d="M60.35 47.94L69.51 47.94L69.51 79.32L60.35 79.32L60.35 47.94Z" id="b3azpWCYBq"></path><path d="M53.6 79.36L53.6 74.53L58.35 74.53L58.35 79.36L53.6 79.36ZM53.6 71.78L53.6 47.98L58.35 47.98L58.35 71.78L53.6 71.78Z" id="e1tg3i0tO"></path><path d="M71.26 79.36L71.26 74.53L76.01 74.53L76.01 79.36L71.26 79.36ZM71.26 71.78L71.26 47.98L76.01 47.98L76.01 71.78L71.26 71.78Z" id="a5gFUkfH1c"></path><path d="M53.01 42.03L76.35 42.03L78.18 46.09L51.51 46.09L53.01 42.03Z" id="b9j1QyQI7"></path><path d="M64.89 27.69C66.38 27.69 67.6 28.9 67.6 30.4C67.6 31.76 67.6 35.16 67.6 40.61L62.18 40.61C62.18 35.16 62.18 31.76 62.18 30.4C62.18 28.9 63.39 27.69 64.89 27.69C65.43 27.69 64.35 27.69 64.89 27.69Z" id="baJxwwQDU"></path><path d="M66.37 23.68C66.45 23.85 66.51 23.96 66.53 24C67.15 25.25 66.24 26.72 64.85 26.72C64.85 26.72 64.85 26.72 64.85 26.72C64.85 26.72 64.85 26.72 64.85 26.72C63.45 26.72 62.54 25.25 63.17 24C63.19 23.96 63.24 23.85 63.33 23.68L64.85 20.64L66.37 23.68Z" id="c2pzbbd0kJ"></path></defs><g><g><g><use xlink:href="#amPDejJAn" opacity="1" fill="#000000" fill-opacity="1"></use></g><g><use xlink:href="#chWIT9Ycn" opacity="1" fill="#000000" fill-opacity="1"></use></g><g><use xlink:href="#b3azpWCYBq" opacity="1" fill="#000000" fill-opacity="1"></use></g><g><use xlink:href="#e1tg3i0tO" opacity="1" fill="#000000" fill-opacity="1"></use></g><g><use xlink:href="#a5gFUkfH1c" opacity="1" fill="#000000" fill-opacity="1"></use></g><g><use xlink:href="#b9j1QyQI7" opacity="1" fill="#000000" fill-opacity="1"></use></g><g><use xlink:href="#baJxwwQDU" opacity="1" fill="#000000" fill-opacity="1"></use></g><g><use xlink:href="#c2pzbbd0kJ" opacity="1" fill="#000000" fill-opacity="1"></use></g></g></g></svg>