<?xml version="1.0" encoding="utf-8"?>
<!-- Generator: Adobe Illustrator 16.0.0, SVG Export Plug-In . SVG Version: 6.00 Build 0)  -->
<!DOCTYPE svg PUBLIC "-//W3C//DTD SVG 1.1//EN" "http://www.w3.org/Graphics/SVG/1.1/DTD/svg11.dtd">
<svg version="1.1" id="Layer_1" xmlns="http://www.w3.org/2000/svg" xmlns:xlink="http://www.w3.org/1999/xlink" x="0px" y="0px"
	 width="100px" height="100px" viewBox="0 0 100 100" enable-background="new 0 0 100 100" xml:space="preserve">
<g>
	<g>
		<g>
			<g>
				<g>
					<g>
						<path id="b1A922DLJh_1_" fill-opacity="0" d="M53.96,42.48c0,10.49-8.52,19.01-19.01,19.01c-10.5,0-19.02-8.521-19.02-19.01
							s8.52-19.01,19.02-19.01C45.44,23.47,53.96,31.99,53.96,42.48z"/>
						<path d="M34.95,64.99c-12.417,0-22.52-10.098-22.52-22.51c0-12.412,10.103-22.51,22.52-22.51
							c12.412,0,22.51,10.098,22.51,22.51C57.46,54.893,47.362,64.99,34.95,64.99z M34.95,26.97c-8.558,0-15.52,6.958-15.52,15.51
							s6.962,15.51,15.52,15.51c8.552,0,15.51-6.958,15.51-15.51S43.502,26.97,34.95,26.97z"/>
					</g>
				</g>
			</g>
		</g>
		<g>
			<g>
				<path id="b1NyOpu2Xu" d="M37.79,29.22l1.27,0.32l1.22,0.45l1.16,0.56l1.09,0.66l1.02,0.76l0.94,0.85l0.86,0.94l0.76,1.021
					l0.66,1.09l0.56,1.16l0.45,1.21l0.28,1.1l-3.8,2.01l-0.01-0.1L43.99,40l-0.41-1.18l-0.55-1.11l-0.7-1.02l-0.81-0.92l-0.92-0.81
					l-1.02-0.69l-1.11-0.56l-1.19-0.41l-1.25-0.25l-1.3-0.09l-0.38,0.03l0.63-4.03l0.15-0.01l1.35,0.07L37.79,29.22z"/>
			</g>
		</g>
		<g>
			<g>
				<path id="a22rejWzsX" d="M82.82,68.76l0.35,0.36l0.29,0.399l0.24,0.42l0.18,0.451L84,70.859l0.07,0.48l-0.01,0.49L84,72.311
					l-0.13,0.479l-0.19,0.46l-0.26,0.439l-0.8,1.19l-0.32,0.41l-0.36,0.351l-0.39,0.289l-0.43,0.24l-0.45,0.18l-0.47,0.12
					l-0.479,0.061h-0.48l-0.48-0.061l-0.48-0.13L77.82,76.15l-0.45-0.26L60.52,64.48l5.041-7.45l16.85,11.42L82.82,68.76z
					 M57.75,66.34l-7.48-5.06l8.52-12.58l7.479,5.069L57.75,66.34z"/>
			</g>
		</g>
	</g>
</g>
</svg>
