<?xml version="1.0" encoding="UTF-8" standalone="no"?>
<!DOCTYPE svg PUBLIC "-//W3C//DTD SVG 1.1//EN" "http://www.w3.org/Graphics/SVG/1.1/DTD/svg11.dtd">
<svg version="1.1" xmlns="http://www.w3.org/2000/svg" xmlns:xlink="http://www.w3.org/1999/xlink" preserveAspectRatio="xMidYMid meet" viewBox="0 0 100 100" width="100" height="100"><defs><path d="M39.6 36.5C39.6 41.03 35.93 44.7 31.4 44.7C26.87 44.7 23.2 41.03 23.2 36.5C23.2 31.97 26.87 28.3 31.4 28.3C35.93 28.3 39.6 31.97 39.6 36.5Z" id="a48G0wriW"></path><path d="M42.2 29.1C59.59 29.1 70.45 29.1 74.8 29.1C80.43 29.1 85 33.67 85 39.3C85 40.05 85 41.91 85 44.9L42.2 44.9L42.2 29.1Z" id="b5Mq3BT8P"></path><path d="M18.1 24.5C19.48 24.5 20.6 25.62 20.6 27C20.6 36.7 20.6 63.3 20.6 73C20.6 74.38 19.48 75.5 18.1 75.5C17.48 75.5 18.12 75.5 17.5 75.5C16.12 75.5 15 74.38 15 73C15 63.3 15 36.7 15 27C15 25.62 16.12 24.5 17.5 24.5C18.12 24.5 17.48 24.5 18.1 24.5Z" id="g1LNpEUjVb"></path><path d="M19.43 47.5L80.4 47.5L80.4 68.12L19.43 68.12L19.43 47.5Z" id="a716CfckWO"></path><path d="M84.99 73.19L84.97 73.37L84.94 73.55L84.89 73.72L84.84 73.89L84.77 74.05L84.69 74.21L84.6 74.36L84.5 74.5L84.39 74.64L84.27 74.77L84.14 74.89L84 75L83.86 75.1L83.71 75.19L83.55 75.27L83.39 75.34L83.22 75.39L83.05 75.44L82.87 75.47L82.69 75.49L82.5 75.5L81.9 75.5L81.71 75.49L81.53 75.47L81.35 75.44L81.18 75.39L81.01 75.34L80.85 75.27L80.69 75.19L80.54 75.1L80.4 75L80.26 74.89L80.13 74.77L80.01 74.64L79.9 74.5L79.8 74.36L79.71 74.21L79.63 74.05L79.56 73.89L79.51 73.72L79.46 73.55L79.43 73.37L79.41 73.19L79.4 73L79.4 47.5L85 47.5L85 73L84.99 73.19Z" id="b1Ai9KgJ9k"></path></defs><g><g><g><use xlink:href="#a48G0wriW" opacity="1" fill="#000000" fill-opacity="1"></use></g><g><use xlink:href="#b5Mq3BT8P" opacity="1" fill="#000000" fill-opacity="1"></use></g><g><use xlink:href="#g1LNpEUjVb" opacity="1" fill="#000000" fill-opacity="1"></use></g><g><use xlink:href="#a716CfckWO" opacity="1" fill="#000000" fill-opacity="1"></use></g><g><use xlink:href="#b1Ai9KgJ9k" opacity="1" fill="#000000" fill-opacity="1"></use></g></g></g></svg>