<?xml version="1.0" encoding="UTF-8" standalone="no"?>
<!DOCTYPE svg PUBLIC "-//W3C//DTD SVG 1.1//EN" "http://www.w3.org/Graphics/SVG/1.1/DTD/svg11.dtd">
<svg version="1.1" xmlns="http://www.w3.org/2000/svg" xmlns:xlink="http://www.w3.org/1999/xlink" preserveAspectRatio="xMidYMid meet" viewBox="0 0 100 100" width="100" height="100"><defs><path d="M52.73 24.13L54.02 24.29L55.3 24.51L56.55 24.79L57.78 25.13L58.99 25.53L60.17 25.98L61.33 26.48L62.45 27.04L63.55 27.65L64.61 28.3L65.64 29.01L66.63 29.76L67.59 30.55L68.5 31.39L69.38 32.26L70.22 33.18L71.01 34.14L71.76 35.13L72.47 36.16L73.12 37.22L73.73 38.32L74.29 39.44L74.79 40.6L75.24 41.78L75.64 42.98L75.98 44.22L76.26 45.47L76.48 46.75L76.64 48.04L76.74 49.36L76.77 50.69L76.74 52.02L76.64 53.33L76.48 54.63L76.26 55.91L75.98 57.16L75.64 58.39L75.24 59.6L74.79 60.78L74.29 61.93L73.73 63.06L73.12 64.15L72.47 65.22L71.76 66.24L71.01 67.24L70.22 68.19L69.38 69.11L68.5 69.99L67.59 70.83L66.63 71.62L65.64 72.37L64.61 73.07L63.55 73.73L62.45 74.34L61.33 74.89L60.17 75.4L58.99 75.85L57.78 76.25L56.55 76.58L55.3 76.87L54.02 77.09L52.73 77.25L51.41 77.34L50.08 77.38L48.75 77.34L47.43 77.25L46.14 77.09L44.86 76.87L43.61 76.58L42.38 76.25L41.17 75.85L39.99 75.4L38.83 74.89L37.71 74.34L36.61 73.73L35.55 73.07L34.52 72.37L33.53 71.62L32.57 70.83L31.66 69.99L30.78 69.11L29.94 68.19L29.15 67.24L28.4 66.24L27.69 65.22L27.04 64.15L26.43 63.06L25.87 61.93L25.37 60.78L24.92 59.6L24.52 58.39L24.18 57.16L23.9 55.91L23.68 54.63L23.52 53.33L23.42 52.02L23.39 50.69L23.42 49.36L23.52 48.04L23.68 46.75L23.9 45.47L24.18 44.22L24.52 42.98L24.92 41.78L25.37 40.6L25.87 39.44L26.43 38.32L27.04 37.22L27.69 36.16L28.4 35.13L29.15 34.14L29.94 33.18L30.78 32.26L31.66 31.39L32.57 30.55L33.53 29.76L34.52 29.01L35.55 28.3L36.61 27.65L37.71 27.04L38.83 26.48L39.99 25.98L41.17 25.53L42.38 25.13L43.61 24.79L44.86 24.51L46.14 24.29L47.43 24.13L48.75 24.03L50.08 24L51.41 24.03L52.73 24.13ZM47.42 30.42L46.12 30.63L44.86 30.92L43.62 31.29L42.42 31.73L41.26 32.24L40.13 32.83L39.05 33.48L38.01 34.19L37.02 34.96L36.08 35.8L35.19 36.69L34.36 37.63L33.58 38.62L32.87 39.66L32.22 40.74L31.64 41.86L31.12 43.03L30.68 44.23L30.31 45.46L30.02 46.73L29.81 48.02L29.68 49.34L29.64 50.69L29.68 52.03L29.81 53.35L30.02 54.65L30.31 55.91L30.68 57.15L31.12 58.35L31.64 59.51L32.22 60.64L32.87 61.72L33.58 62.76L34.36 63.75L35.19 64.69L36.08 65.58L37.02 66.41L38.01 67.19L39.05 67.9L40.13 68.55L41.26 69.13L42.42 69.65L43.62 70.09L44.86 70.46L46.12 70.75L47.42 70.96L48.74 71.09L50.08 71.13L51.42 71.09L52.74 70.96L54.04 70.75L55.3 70.46L56.54 70.09L57.74 69.65L58.9 69.13L60.03 68.55L61.11 67.9L62.15 67.19L63.14 66.41L64.08 65.58L64.97 64.69L65.8 63.75L66.58 62.76L67.29 61.72L67.94 60.64L68.52 59.51L69.04 58.35L69.48 57.15L69.85 55.91L70.14 54.65L70.35 53.35L70.48 52.03L70.52 50.69L70.48 49.34L70.35 48.02L70.14 46.73L69.85 45.46L69.48 44.23L69.04 43.03L68.52 41.86L67.94 40.74L67.29 39.66L66.58 38.62L65.8 37.63L64.97 36.69L64.08 35.8L63.14 34.96L62.15 34.19L61.11 33.48L60.03 32.83L58.9 32.24L57.74 31.73L56.54 31.29L55.3 30.92L54.04 30.63L52.74 30.42L51.42 30.29L50.08 30.24L48.74 30.29L47.42 30.42Z" id="a3X5UfMxlV"></path><path d="M52.69 36.63L53.93 36.92L55.14 37.31L56.3 37.8L57.4 38.38L58.44 39.06L59.42 39.81L60.34 40.65L61.17 41.56L61.93 42.54L62.61 43.59L63.19 44.69L63.68 45.85L64.07 47.05L64.35 48.3L64.53 49.59L64.59 50.91L64.53 52.23L64.35 53.51L64.07 54.76L63.68 55.97L63.19 57.12L62.61 58.23L61.93 59.27L61.17 60.25L60.34 61.16L59.42 62L58.44 62.76L57.4 63.43L56.3 64.02L55.14 64.51L53.93 64.9L52.69 65.18L51.4 65.36L50.08 65.42L48.76 65.36L47.47 65.18L46.23 64.9L45.02 64.51L43.86 64.02L42.76 63.43L41.72 62.76L40.74 62L39.82 61.16L38.99 60.25L38.23 59.27L37.55 58.23L36.97 57.12L36.48 55.97L36.09 54.76L35.81 53.51L35.63 52.23L35.57 50.91L35.63 49.59L35.81 48.3L36.09 47.05L36.48 45.85L36.97 44.69L37.55 43.59L38.23 42.54L38.99 41.56L39.82 40.65L40.74 39.81L41.72 39.06L42.76 38.38L43.86 37.8L45.02 37.31L46.23 36.92L47.47 36.63L48.76 36.46L50.08 36.4L51.4 36.46L52.69 36.63ZM47.41 45.22L46.28 45.94L45.33 46.88L44.62 48.01L44.16 49.29L44 50.69L44.16 52.08L44.62 53.36L45.33 54.49L46.28 55.43L47.41 56.15L48.69 56.61L50.08 56.77L51.47 56.61L52.75 56.15L53.88 55.43L54.83 54.49L55.54 53.36L56 52.08L56.16 50.69L56 49.29L55.54 48.01L54.83 46.88L53.88 45.94L52.75 45.22L51.47 44.77L50.08 44.6L48.69 44.77L47.41 45.22Z" id="eHscfZskL"></path><path d="M46.58 27.93L53.58 27.93L53.58 40.93L46.58 40.93L46.58 27.93Z" id="j1CK7QP1k"></path><path d="M46.58 61.13L53.58 61.13L53.58 74.13L46.58 74.13L46.58 61.13Z" id="azcf6L9Qc"></path><path d="M26.98 54.19L26.98 47.19L39.98 47.19L39.98 54.19L26.98 54.19Z" id="b39Z0tZYQG"></path><path d="M60.18 54.19L60.18 47.19L73.18 47.19L73.18 54.19L60.18 54.19Z" id="cbIKlxAPf"></path><path d="M45.31 84.79L42.17 74.77L57.99 74.77L55.17 84.79L45.31 84.79ZM77.66 71.81L67.58 69.24L75.49 55.54L82.6 63.26L77.66 71.81ZM17.4 62.99L24.67 55.54L32.58 69.24L22.34 71.53L17.4 62.99ZM24.67 44.46L17.4 37.01L22.34 28.47L32.58 30.76L24.67 44.46ZM75.49 44.46L67.58 30.76L77.66 28.19L82.6 36.74L75.49 44.46ZM42.17 25.23L45.31 15.21L55.17 15.21L57.99 25.23L42.17 25.23Z" id="bP2oaNnVw"></path></defs><g><g><g><use xlink:href="#a3X5UfMxlV" opacity="1" fill="#000000" fill-opacity="1"></use></g><g><use xlink:href="#eHscfZskL" opacity="1" fill="#000000" fill-opacity="1"></use></g><g><use xlink:href="#j1CK7QP1k" opacity="1" fill="#000000" fill-opacity="1"></use></g><g><use xlink:href="#azcf6L9Qc" opacity="1" fill="#000000" fill-opacity="1"></use></g><g><use xlink:href="#b39Z0tZYQG" opacity="1" fill="#000000" fill-opacity="1"></use></g><g><use xlink:href="#cbIKlxAPf" opacity="1" fill="#000000" fill-opacity="1"></use></g><g><use xlink:href="#bP2oaNnVw" opacity="1" fill="#000000" fill-opacity="1"></use></g></g></g></svg>