<?xml version="1.0" encoding="UTF-8" standalone="no"?>
<!DOCTYPE svg PUBLIC "-//W3C//DTD SVG 1.1//EN" "http://www.w3.org/Graphics/SVG/1.1/DTD/svg11.dtd">
<svg version="1.1" xmlns="http://www.w3.org/2000/svg" xmlns:xlink="http://www.w3.org/1999/xlink" preserveAspectRatio="xMidYMid meet" viewBox="0 0 100 100" width="100" height="100"><defs><path d="M75.43 30.28C75.43 35.19 71.44 39.18 66.53 39.18C61.62 39.18 57.63 35.19 57.63 30.28C57.63 25.37 61.62 21.39 66.53 21.39C71.44 21.39 75.43 25.37 75.43 30.28Z" id="a561P6523"></path><path d="M52.49 32.34L64.1 42.81L46.11 62.76L34.5 52.28L52.49 32.34Z" id="a4WuUJn4c"></path><path d="M46.59 21.32L47.02 21.56L47.4 21.87L47.72 22.26L47.96 22.72L48.03 22.89L54.88 34.64L55.09 35.09L55.22 35.57L55.26 36.05L55.22 36.53L55.09 36.99L54.9 37.42L54.62 37.82L54.28 38.17L53.87 38.47L52.58 39.22L52.12 39.43L51.64 39.56L51.16 39.6L50.69 39.56L50.22 39.44L49.79 39.24L49.39 38.97L49.04 38.62L48.75 38.21L43.6 29.38L37.92 31.67L37.42 31.82L36.92 31.86L36.43 31.8L35.96 31.66L35.52 31.42L35.14 31.11L34.82 30.71L34.58 30.25L33.84 28.44L33.7 27.94L33.66 27.43L33.71 26.94L33.86 26.47L34.1 26.04L34.41 25.66L34.8 25.34L35.26 25.09L44.19 21.48L44.47 21.35L44.61 21.31L44.62 21.31L45.12 21.16L45.62 21.12L46.12 21.18L46.59 21.32Z" id="a2CDO2lZz0"></path><path d="M63.35 42.22L63.76 42.49L64.12 42.82L64.42 43.22L69.8 51.92L75.41 49.48L75.91 49.32L76.41 49.26L76.9 49.3L77.38 49.44L77.82 49.66L78.21 49.97L78.54 50.35L78.79 50.8L79.57 52.6L79.73 53.1L79.79 53.6L79.75 54.09L79.61 54.57L79.39 55.01L79.08 55.4L78.7 55.73L78.25 55.98L69.42 59.82L69.13 59.97L69 60.01L68.99 60.01L68.49 60.17L67.99 60.23L67.5 60.18L67.02 60.05L66.58 59.82L66.19 59.52L65.86 59.14L65.61 58.68L65.54 58.52L58.39 46.96L58.16 46.51L58.02 46.03L57.97 45.55L58 45.08L58.11 44.61L58.29 44.17L58.56 43.77L58.89 43.41L59.29 43.1L60.57 42.32L61.02 42.09L61.49 41.95L61.97 41.9L62.45 41.93L62.91 42.04L62.91 42.04L63.35 42.22Z" id="b3rlgHQVwY"></path><path d="M50.21 55.73L50.58 56.03L50.91 56.4L51.17 56.84L57.1 69.07L57.19 69.22L57.44 69.68L57.59 70.16L57.63 70.66L57.59 71.15L57.45 71.62L57.22 72.06L56.9 72.45L56.5 72.79L56.49 72.8L56.39 72.89L56.12 73.05L48.14 78.44L47.68 78.69L47.2 78.83L46.7 78.88L46.21 78.83L45.74 78.69L45.3 78.47L44.91 78.15L44.57 77.75L43.48 76.13L43.23 75.67L43.08 75.18L43.04 74.69L43.08 74.2L43.22 73.73L43.45 73.29L43.77 72.89L44.17 72.56L49.24 69.13L44.78 59.93L44.6 59.46L44.51 58.97L44.51 58.49L44.59 58.02L44.75 57.57L44.98 57.15L45.28 56.77L45.65 56.45L46.08 56.19L47.43 55.54L47.9 55.36L48.38 55.27L48.87 55.27L49.34 55.34L49.79 55.5L49.79 55.5L50.21 55.73Z" id="b1pJ7RJgYp"></path><path d="M25.82 45.22L26.23 45.5L26.57 45.87L26.85 46.31L29.53 51.82L39.27 48.7L39.76 48.59L40.25 48.57L40.73 48.64L41.18 48.78L41.61 49L41.99 49.29L42.32 49.64L42.59 50.05L42.79 50.52L43.24 51.94L43.35 52.43L43.37 52.92L43.31 53.4L43.16 53.86L42.95 54.28L42.66 54.67L42.31 55L41.89 55.26L41.43 55.46L28.48 59.61L28.32 59.68L27.83 59.86L27.33 59.94L26.84 59.92L26.36 59.8L25.91 59.6L25.51 59.31L25.16 58.94L24.89 58.5L24.88 58.48L24.8 58.37L24.68 58.08L20.47 49.42L20.29 48.93L20.21 48.43L20.23 47.94L20.35 47.46L20.55 47.01L20.84 46.61L21.21 46.26L21.65 45.99L23.42 45.13L23.9 44.95L24.4 44.87L24.9 44.9L25.38 45.01L25.38 45.01L25.82 45.22Z" id="b1W9Jx69pJ"></path></defs><g><g><g><use xlink:href="#a561P6523" opacity="1" fill="#000000" fill-opacity="1"></use></g><g><use xlink:href="#a4WuUJn4c" opacity="1" fill="#000000" fill-opacity="1"></use></g><g><use xlink:href="#a2CDO2lZz0" opacity="1" fill="#000000" fill-opacity="1"></use></g><g><use xlink:href="#b3rlgHQVwY" opacity="1" fill="#000000" fill-opacity="1"></use></g><g><use xlink:href="#b1pJ7RJgYp" opacity="1" fill="#000000" fill-opacity="1"></use></g><g><use xlink:href="#b1W9Jx69pJ" opacity="1" fill="#000000" fill-opacity="1"></use></g></g></g></svg>