<?xml version="1.0" encoding="UTF-8" standalone="no"?>
<!DOCTYPE svg PUBLIC "-//W3C//DTD SVG 1.1//EN" "http://www.w3.org/Graphics/SVG/1.1/DTD/svg11.dtd">
<svg version="1.1" xmlns="http://www.w3.org/2000/svg" xmlns:xlink="http://www.w3.org/1999/xlink" preserveAspectRatio="xMidYMid meet" viewBox="0 0 100 100" width="100" height="100"><defs><path d="M38.01 78.43L38.55 78.39L39.08 78.35L39.58 78.28L40.07 78.21L40.53 78.12L40.98 78.02L41.41 77.9L41.82 77.77L42.22 77.63L42.59 77.47L42.95 77.3L43.29 77.12L43.61 76.92L43.91 76.71L44.19 76.48L44.46 76.24L44.71 75.99L44.94 75.72L45.15 75.44L45.34 75.15L45.51 74.84L45.67 74.52L45.81 74.18L45.93 73.83L46.03 73.47L46.11 73.09L46.17 72.7L46.22 72.3L46.25 71.88L46.26 71.45L46.26 30.03L46.25 29.67L46.22 29.31L46.18 28.95L46.13 28.59L46.06 28.25L45.97 27.9L45.87 27.57L45.75 27.23L45.63 26.91L45.48 26.59L45.33 26.28L45.16 25.97L44.98 25.68L44.78 25.39L44.58 25.11L44.36 24.84L44.13 24.58L43.89 24.33L43.64 24.09L43.38 23.86L43.11 23.65L42.83 23.44L42.54 23.24L42.24 23.06L41.93 22.89L41.61 22.73L41.29 22.59L40.95 22.46L40.61 22.35L40.26 22.25L39.91 22.16L37.46 21.63L37.46 19.25L62.34 19.25L62.34 21.63L59.89 22.16L59.54 22.25L59.19 22.35L58.85 22.46L58.51 22.59L58.19 22.73L57.87 22.89L57.56 23.06L57.26 23.24L56.97 23.44L56.69 23.65L56.42 23.86L56.16 24.09L55.91 24.33L55.67 24.58L55.44 24.84L55.22 25.11L55.02 25.39L54.82 25.68L54.64 25.97L54.47 26.28L54.32 26.59L54.17 26.91L54.04 27.23L53.93 27.57L53.83 27.9L53.74 28.25L53.67 28.59L53.62 28.95L53.58 29.31L53.55 29.67L53.54 30.03L53.54 71.45L53.55 71.88L53.58 72.3L53.63 72.7L53.69 73.09L53.77 73.47L53.87 73.83L53.99 74.18L54.13 74.52L54.29 74.84L54.46 75.15L54.65 75.44L54.86 75.72L55.09 75.99L55.34 76.24L55.6 76.48L55.89 76.71L56.19 76.92L56.51 77.12L56.85 77.3L57.21 77.47L57.58 77.63L57.98 77.77L58.39 77.9L58.82 78.02L59.27 78.12L59.73 78.21L60.22 78.28L60.72 78.35L61.25 78.39L61.79 78.43L62.34 78.45L62.34 80.75L37.46 80.75L37.46 78.45L38.01 78.43Z" id="b24KmQ5jgr"></path><path d="M18.09 28.41C19.37 28.97 20.16 29.31 20.48 29.45C22.96 30.53 24.78 32.72 25.39 35.35C25.4 35.38 24.74 32.55 24.82 32.9C25.22 34.62 25.44 36.39 25.48 38.16C25.53 40.93 25.63 45.76 25.68 48.32C25.73 50.77 26 53.2 26.49 55.59C26.66 56.42 26.4 55.16 26.57 55.96C27.07 58.41 28.38 60.63 30.29 62.25C30.92 62.78 29.7 61.75 30.29 62.25C32.34 63.99 34.82 65.16 37.47 65.63C38.16 65.75 37.42 65.62 38.41 65.8C40.08 66.1 41.78 66.25 43.47 66.25C43.9 66.25 44.97 66.25 46.67 66.25L46.67 61.83C44.79 61.83 43.61 61.83 43.14 61.83C41.24 61.83 39.36 61.43 37.62 60.66C37.43 60.58 38.15 60.9 37.62 60.66C37.01 60.39 36.5 59.93 36.17 59.35C35.9 58.88 36.27 59.53 36.17 59.35C35.3 57.81 34.84 56.07 34.84 54.3C34.84 50.54 34.84 42.36 34.84 38.7C34.84 36.57 34.59 34.45 34.1 32.38C33.96 31.82 34.24 33.01 34.1 32.38C33.67 30.6 32.5 29.08 30.89 28.2C30.36 27.91 31.4 28.48 30.89 28.2C29.13 27.25 27.16 26.76 25.16 26.8C24.22 26.81 21.86 26.85 18.09 26.91L18.09 28.41Z" id="are9iqyv0"></path><path d="M81.91 28.41C80.63 28.97 79.84 29.31 79.52 29.45C77.04 30.53 75.22 32.72 74.61 35.35C74.6 35.38 75.26 32.55 75.18 32.9C74.78 34.62 74.56 36.39 74.52 38.16C74.47 40.93 74.37 45.76 74.32 48.32C74.27 50.77 74 53.2 73.51 55.59C73.34 56.42 73.6 55.16 73.43 55.96C72.93 58.41 71.62 60.63 69.71 62.25C69.08 62.78 70.3 61.75 69.71 62.25C67.66 63.99 65.18 65.16 62.53 65.63C61.84 65.75 62.58 65.62 61.59 65.8C59.92 66.1 58.22 66.25 56.53 66.25C56.1 66.25 55.03 66.25 53.33 66.25L53.33 61.83C55.21 61.83 56.39 61.83 56.86 61.83C58.76 61.83 60.64 61.43 62.38 60.66C62.57 60.58 61.85 60.9 62.38 60.66C62.99 60.39 63.5 59.93 63.83 59.35C64.1 58.88 63.73 59.53 63.83 59.35C64.7 57.81 65.16 56.07 65.16 54.3C65.16 50.54 65.16 42.36 65.16 38.7C65.16 36.57 65.41 34.45 65.9 32.38C66.04 31.82 65.76 33.01 65.9 32.38C66.33 30.6 67.5 29.08 69.11 28.2C69.64 27.91 68.6 28.48 69.11 28.2C70.87 27.25 72.84 26.76 74.84 26.8C75.78 26.81 78.14 26.85 81.91 26.91L81.91 28.41Z" id="aoCCFmYbT"></path></defs><g><g><g><use xlink:href="#b24KmQ5jgr" opacity="1" fill="#000000" fill-opacity="1"></use></g><g><use xlink:href="#are9iqyv0" opacity="1" fill="#000000" fill-opacity="1"></use></g><g><use xlink:href="#aoCCFmYbT" opacity="1" fill="#000000" fill-opacity="1"></use></g></g></g></svg>