<?xml version="1.0" encoding="utf-8"?>
<!-- Generator: Adobe Illustrator 16.0.0, SVG Export Plug-In . SVG Version: 6.00 Build 0)  -->
<!DOCTYPE svg PUBLIC "-//W3C//DTD SVG 1.1//EN" "http://www.w3.org/Graphics/SVG/1.1/DTD/svg11.dtd">
<svg version="1.1" id="Layer_1" xmlns="http://www.w3.org/2000/svg" xmlns:xlink="http://www.w3.org/1999/xlink" x="0px" y="0px"
	 width="100px" height="100px" viewBox="0 0 100 100" enable-background="new 0 0 100 100" xml:space="preserve">
<g>
	<g>
		<g>
			<g>
				<g>
					<g>
						<path id="a2AUMm3Bi7_1_" fill-opacity="0" d="M63.221,50c0,15.97-5.931,28.93-13.221,28.93S36.78,65.97,36.78,50
							S42.71,21.07,50,21.07S63.221,34.03,63.221,50z"/>
						<path d="M50,82.43c-9.532,0-16.72-13.941-16.72-32.43S40.468,17.57,50,17.57S66.721,31.512,66.721,50S59.532,82.43,50,82.43z
							 M50,24.57c-3.963,0-9.72,9.907-9.72,25.43S46.037,75.43,50,75.43c3.964,0,9.721-9.906,9.721-25.43S53.964,24.57,50,24.57z"/>
					</g>
				</g>
			</g>
		</g>
		<g>
			<g>
				<g>
					<g>
						<path id="e5ij88H6cb_1_" fill-opacity="0" d="M43.39,59.641C26.97,51.66,16.6,40.85,20.25,35.53
							c3.64-5.32,19.94-3.15,36.359,4.83C73.029,48.34,83.4,59.15,79.75,64.47C76.109,69.79,59.811,67.62,43.39,59.641z"/>
						<path d="M71.126,70.884c-7.894,0-18.834-3.026-29.266-8.095C27.988,56.047,18.216,47.49,16.356,40.457
							c-0.858-3.244,0.075-5.546,1.008-6.907c2.013-2.941,5.886-4.435,11.51-4.435c7.894,0,18.835,3.027,29.266,8.096
							c13.872,6.742,23.646,15.299,25.505,22.332c0.857,3.243-0.075,5.546-1.009,6.906C80.623,69.391,76.75,70.884,71.126,70.884z
							 M28.874,36.116c-3.776,0-5.381,0.875-5.735,1.391c-0.155,0.226-0.16,0.615-0.015,1.161
							c1.09,4.124,8.928,11.571,21.796,17.826c9.524,4.628,19.321,7.391,26.206,7.391c3.776,0,5.382-0.874,5.735-1.391
							c0.155-0.226,0.159-0.615,0.016-1.16c-1.091-4.124-8.928-11.571-21.798-17.825C45.556,38.879,35.759,36.116,28.874,36.116z"/>
					</g>
				</g>
			</g>
		</g>
		<g>
			<g>
				<g>
					<g>
						<path id="bAzfNjQhV_1_" fill-opacity="0" d="M43.39,40.36c16.42-7.98,32.719-10.15,36.36-4.83
							c3.65,5.32-6.721,16.13-23.141,24.11C40.19,67.62,23.89,69.79,20.25,64.47C16.6,59.15,26.97,48.34,43.39,40.36z"/>
						<path d="M28.874,70.884c-5.624,0-9.497-1.493-11.512-4.438c-0.931-1.356-1.863-3.659-1.005-6.903
							c1.86-7.032,11.632-15.589,25.504-22.331c10.432-5.069,21.372-8.096,29.267-8.096c5.623,0,9.496,1.493,11.512,4.438
							c0.931,1.356,1.863,3.659,1.006,6.903c-1.86,7.033-11.633,15.589-25.505,22.332C47.708,67.857,36.768,70.884,28.874,70.884z
							 M71.127,36.116c-6.886,0-16.683,2.764-26.207,7.392c-12.869,6.254-20.706,13.701-21.796,17.825
							c-0.145,0.545-0.14,0.935,0.012,1.156c0.356,0.521,1.962,1.395,5.738,1.395c6.886,0,16.682-2.763,26.206-7.392
							c12.87-6.254,20.707-13.701,21.798-17.825c0.144-0.545,0.14-0.935-0.013-1.157C76.508,36.99,74.902,36.116,71.127,36.116z"/>
					</g>
				</g>
			</g>
		</g>
		<g>
			<g>
				<path id="a4iv0j6Bf" d="M56.08,50c0,3.359-2.721,6.08-6.08,6.08c-3.36,0-6.08-2.721-6.08-6.08c0-3.36,2.72-6.08,6.08-6.08
					C53.359,43.92,56.08,46.64,56.08,50z"/>
			</g>
		</g>
	</g>
</g>
</svg>
