<?xml version="1.0" encoding="UTF-8" standalone="no"?>
<!DOCTYPE svg PUBLIC "-//W3C//DTD SVG 1.1//EN" "http://www.w3.org/Graphics/SVG/1.1/DTD/svg11.dtd">
<svg version="1.1" xmlns="http://www.w3.org/2000/svg" xmlns:xlink="http://www.w3.org/1999/xlink" preserveAspectRatio="xMidYMid meet" viewBox="0 0 100 100" width="100" height="100"><defs><path d="M52.66 20.1L53.96 20.25L55.25 20.44L56.52 20.7L57.77 21L59 21.36L60.2 21.77L61.39 22.22L62.54 22.73L63.68 23.28L64.78 23.88L65.86 24.52L66.91 25.2L67.92 25.93L68.91 26.7L69.86 27.5L70.77 28.35L71.65 29.23L72.5 30.14L73.3 31.09L74.07 32.08L74.8 33.09L75.48 34.14L76.12 35.22L76.72 36.32L77.27 37.46L77.78 38.61L78.23 39.8L78.64 41L79 42.23L79.3 43.48L79.56 44.75L79.75 46.04L79.9 47.34L79.98 48.66L80.01 50L79.98 51.34L79.9 52.66L79.75 53.96L79.56 55.25L79.3 56.52L79 57.77L78.64 59L78.23 60.2L77.78 61.39L77.27 62.54L76.72 63.68L76.12 64.78L75.48 65.86L74.8 66.91L74.07 67.92L73.3 68.91L72.5 69.86L71.65 70.77L70.77 71.65L69.86 72.5L68.91 73.3L67.92 74.07L66.91 74.8L65.86 75.48L64.78 76.12L63.68 76.72L62.54 77.27L61.39 77.78L60.2 78.23L59 78.64L57.77 79L56.52 79.3L55.25 79.56L53.96 79.75L52.66 79.9L51.34 79.98L50 80.01L48.66 79.98L47.34 79.9L46.04 79.75L44.75 79.56L43.48 79.3L42.23 79L41 78.64L39.8 78.23L38.61 77.78L37.46 77.27L36.32 76.72L35.22 76.12L34.14 75.48L33.09 74.8L32.08 74.07L31.09 73.3L30.14 72.5L29.23 71.65L28.35 70.77L27.5 69.86L26.7 68.91L25.93 67.92L25.2 66.91L24.52 65.86L23.88 64.78L23.28 63.68L22.73 62.54L22.22 61.39L21.77 60.2L21.36 59L21 57.77L20.7 56.52L20.44 55.25L20.25 53.96L20.1 52.66L20.02 51.34L19.99 50L20.02 48.66L20.1 47.34L20.25 46.04L20.44 44.75L20.7 43.48L21 42.23L21.36 41L21.77 39.8L22.22 38.61L22.73 37.46L23.28 36.32L23.88 35.22L24.52 34.14L25.2 33.09L25.93 32.08L26.7 31.09L27.5 30.14L28.35 29.23L29.23 28.35L30.14 27.5L31.09 26.7L32.08 25.93L33.09 25.2L34.14 24.52L35.22 23.88L36.32 23.28L37.46 22.73L38.61 22.22L39.8 21.77L41 21.36L42.23 21L43.48 20.7L44.75 20.44L46.04 20.25L47.34 20.1L48.66 20.02L50 19.99L51.34 20.02L52.66 20.1ZM47.34 30.11L46.04 30.32L44.78 30.61L43.54 30.98L42.34 31.42L41.18 31.94L40.05 32.52L38.97 33.17L37.93 33.88L36.94 34.66L36 35.49L35.11 36.38L34.28 37.32L33.5 38.31L32.79 39.35L32.14 40.43L31.56 41.56L31.04 42.72L30.6 43.92L30.23 45.16L29.94 46.42L29.73 47.72L29.6 49.04L29.56 50.38L29.6 51.72L29.73 53.04L29.94 54.34L30.23 55.6L30.6 56.84L31.04 58.04L31.56 59.2L32.14 60.33L32.79 61.41L33.5 62.45L34.28 63.44L35.11 64.38L36 65.27L36.94 66.1L37.93 66.88L38.97 67.59L40.05 68.24L41.18 68.82L42.34 69.34L43.54 69.78L44.78 70.15L46.04 70.44L47.34 70.65L48.66 70.78L50 70.82L51.34 70.78L52.66 70.65L53.96 70.44L55.22 70.15L56.46 69.78L57.66 69.34L58.82 68.82L59.95 68.24L61.03 67.59L62.07 66.88L63.06 66.1L64 65.27L64.89 64.38L65.72 63.44L66.5 62.45L67.21 61.41L67.86 60.33L68.44 59.2L68.96 58.04L69.4 56.84L69.77 55.6L70.06 54.34L70.27 53.04L70.4 51.72L70.44 50.38L70.4 49.04L70.27 47.72L70.06 46.42L69.77 45.16L69.4 43.92L68.96 42.72L68.44 41.56L67.86 40.43L67.21 39.35L66.5 38.31L65.72 37.32L64.89 36.38L64 35.49L63.06 34.66L62.07 33.88L61.03 33.17L59.95 32.52L58.82 31.94L57.66 31.42L56.46 30.98L55.22 30.61L53.96 30.32L52.66 30.11L51.34 29.98L50 29.94L48.66 29.98L47.34 30.11ZM52.74 40.44L54.01 40.88L55.2 41.48L56.3 42.22L57.29 43.09L58.16 44.08L58.9 45.18L59.5 46.37L59.94 47.64L60.22 48.98L60.31 50.38L60.22 51.78L59.94 53.12L59.5 54.39L58.9 55.58L58.16 56.68L57.29 57.67L56.3 58.54L55.2 59.28L54.01 59.88L52.74 60.32L51.4 60.59L50 60.69L48.6 60.59L47.26 60.32L45.99 59.88L44.8 59.28L43.7 58.54L42.71 57.67L41.84 56.68L41.1 55.58L40.5 54.39L40.06 53.12L39.78 51.78L39.69 50.38L39.78 48.98L40.06 47.64L40.5 46.37L41.1 45.18L41.84 44.08L42.71 43.09L43.7 42.22L44.8 41.48L45.99 40.88L47.26 40.44L48.6 40.16L50 40.07L51.4 40.16L52.74 40.44Z" id="aWMwEG7Re"></path></defs><g><g><g><use xlink:href="#aWMwEG7Re" opacity="1" fill="#000000" fill-opacity="1"></use></g></g></g></svg>