<?xml version="1.0" encoding="UTF-8" standalone="no"?>
<!DOCTYPE svg PUBLIC "-//W3C//DTD SVG 1.1//EN" "http://www.w3.org/Graphics/SVG/1.1/DTD/svg11.dtd">
<svg version="1.1" xmlns="http://www.w3.org/2000/svg" xmlns:xlink="http://www.w3.org/1999/xlink" preserveAspectRatio="xMidYMid meet" viewBox="0 0 100 100" width="100" height="100"><defs><path d="M32.7 52.98L33.62 53.47L34.46 54.15L35.2 55.02L38.3 59.44L38.89 60.47L39.27 61.55L39.45 62.64L39.43 63.73L39.23 64.79L38.86 65.8L38.33 66.73L37.65 67.56L36.83 68.28L35.88 68.85L34.81 69.25L33.64 69.46L32.08 69.6L19.52 70.72L24.19 58.34L24.96 56.3L25.46 55.28L26.11 54.42L26.88 53.71L27.75 53.17L28.7 52.79L29.69 52.57L30.71 52.53L31.72 52.67L32.7 52.98ZM29.75 57.75L29.1 58.73L28.76 59.64L26.67 65.18L32.29 64.68L32.98 64.62L34.16 64.25L35.03 63.47L35.51 62.43L35.55 61.27L35.07 60.13L33.68 58.15L32.81 57.37L31.76 57.05L30.69 57.19L29.75 57.75Z" id="h1crrdv6sl"></path><path d="M76.22 24.9L80.48 30.98L72.44 49.1L72.46 49.12L48.18 68.12L30.24 42.51L54.51 23.51L54.5 23.5L73.25 20.66L76.22 24.9L76.22 24.9ZM65.52 35.46L71.03 43.34L76.36 31.32L73.54 27.29L73.54 27.29L71.57 24.48L59.14 26.37L65.52 35.46Z" id="c1WJPHRoq8"></path><path d="M30.24 25.75L45.04 26.42L32.54 36.2L21.96 32.23L30.24 25.75Z" id="d13B8Pclgn"></path><path d="M63.25 72.87L66.96 57.71L54.46 67.49L54.97 79.34L63.25 72.87Z" id="flcPggyIy"></path></defs><g><g><g><use xlink:href="#h1crrdv6sl" opacity="1" fill="#000000" fill-opacity="1"></use></g><g><use xlink:href="#c1WJPHRoq8" opacity="1" fill="#000000" fill-opacity="1"></use></g><g><use xlink:href="#d13B8Pclgn" opacity="1" fill="#000000" fill-opacity="1"></use></g><g><use xlink:href="#flcPggyIy" opacity="1" fill="#000000" fill-opacity="1"></use></g></g></g></svg>