<?xml version="1.0" encoding="utf-8"?>
<!-- Generator: Adobe Illustrator 16.0.0, SVG Export Plug-In . SVG Version: 6.00 Build 0)  -->
<!DOCTYPE svg PUBLIC "-//W3C//DTD SVG 1.1//EN" "http://www.w3.org/Graphics/SVG/1.1/DTD/svg11.dtd">
<svg version="1.1" id="Layer_1" xmlns="http://www.w3.org/2000/svg" xmlns:xlink="http://www.w3.org/1999/xlink" x="0px" y="0px"
	 width="100px" height="100px" viewBox="0 0 100 100" enable-background="new 0 0 100 100" xml:space="preserve">
<g>
	<g>
		<g>
			<g>
				<path id="a2KrPvd7vp" d="M50,81.74V67.46h22.54L50,81.74z M50.65,63.34l8.42-26.54l12.76,26.54H50.65z M63.061,35.58H75.8v26.5
					L63.061,35.58z M60.63,30.53l-1.33,0.64L50,17.46l22.49,14H61.07L60.63,30.53z"/>
			</g>
		</g>
		<g>
			<g>
				<g>
					<g>
						<path id="b1DMg9BEF_1_" fill-opacity="0" d="M27.23,31.05c-1.89,1.22-3.03,3.31-3.03,5.55c0,5.92,0,20.08,0,26
							c0,2.24,1.14,4.33,3.03,5.551c4.55,2.93,15.19,9.77,19.74,12.699c1.85,1.19,4.209,1.19,6.059,0
							c4.551-2.93,15.191-9.77,19.74-12.699C74.66,66.93,75.8,64.84,75.8,62.6c0-5.92,0-20.08,0-26c0-2.24-1.14-4.33-3.03-5.55
							c-4.549-2.93-15.189-9.77-19.74-12.7c-1.85-1.19-4.209-1.19-6.059,0C42.42,21.28,31.78,28.12,27.23,31.05z"/>
						<path d="M50,83.742c-1.459,0-2.881-0.419-4.112-1.211L26.147,69.832c-2.472-1.597-3.947-4.3-3.947-7.232v-26
							c0-2.933,1.475-5.636,3.945-7.23l19.742-12.701c2.464-1.585,5.763-1.584,8.224,0l19.741,12.7
							c2.473,1.596,3.947,4.299,3.947,7.232v26c0,2.933-1.475,5.636-3.945,7.231l-19.742,12.7
							C52.881,83.323,51.459,83.742,50,83.742z M50,19.458c-0.69,0-1.364,0.199-1.948,0.575L28.313,32.731
							c-1.322,0.854-2.113,2.3-2.113,3.869v26c0,1.568,0.791,3.016,2.115,3.871l19.738,12.697c1.167,0.752,2.727,0.753,3.895,0
							l19.739-12.699c1.322-0.854,2.113-2.301,2.113-3.869v-26c0-1.568-0.791-3.015-2.115-3.87L51.946,20.032
							C51.363,19.656,50.689,19.458,50,19.458z"/>
					</g>
				</g>
			</g>
		</g>
		<g>
			<g>
				<g>
					<g>
						<path id="d12tapxvGc_1_" fill-opacity="0" d="M50,17.46L39.94,32.72L50,65.4v16.34"/>
						<polygon points="52,81.74 48,81.74 48,65.701 37.751,32.407 48.33,16.359 51.67,18.561 42.129,33.033 52,65.1 						"/>
					</g>
				</g>
			</g>
		</g>
		<g>
			<g>
				<g>
					<g>
						<path id="fWo6KXKD9_1_" fill-opacity="0" d="M50.3,65.4H24.5"/>
						<rect x="24.5" y="63.4" width="25.8" height="4"/>
					</g>
				</g>
			</g>
		</g>
		<g>
			<g>
				<g>
					<g>
						<path id="bDri35UGi_1_" fill-opacity="0" d="M60.359,33.52H24.8"/>
						<rect x="24.8" y="31.52" width="35.56" height="4"/>
					</g>
				</g>
			</g>
		</g>
		<g>
			<g>
				<g>
					<g>
						<path id="aXkM50l7Q_1_" fill-opacity="0" d="M50.3,18.26l10.06,15.26L50.3,66.2v16.34"/>
						<polygon points="52.3,82.54 48.3,82.54 48.3,65.899 58.17,33.833 48.63,19.36 51.97,17.159 62.549,33.207 52.3,66.501 						
							"/>
					</g>
				</g>
			</g>
		</g>
		<g>
			<g>
				<g>
					<g>
						<path id="a2kihYUyEr_1_" fill-opacity="0" d="M39.94,32.72L24.2,65.4"/>
						<rect x="30.07" y="30.924" transform="matrix(0.9009 0.4341 -0.4341 0.9009 24.4751 -9.0578)" width="4" height="36.273"/>
					</g>
				</g>
			</g>
		</g>
	</g>
</g>
</svg>
