<?xml version="1.0" encoding="utf-8"?>
<!-- Generator: Adobe Illustrator 16.0.0, SVG Export Plug-In . SVG Version: 6.00 Build 0)  -->
<!DOCTYPE svg PUBLIC "-//W3C//DTD SVG 1.1//EN" "http://www.w3.org/Graphics/SVG/1.1/DTD/svg11.dtd">
<svg version="1.1" id="Layer_1" xmlns="http://www.w3.org/2000/svg" xmlns:xlink="http://www.w3.org/1999/xlink" x="0px" y="0px"
	 width="100px" height="100px" viewBox="0 0 100 100" enable-background="new 0 0 100 100" xml:space="preserve">
<g>
	<g>
		<g>
			<g>
				<defs>
					<path id="SVGID_1_" d="M67.17,27.18c9.26,5.3,15.43,14.75,15.43,25.52c0,16.58-14.08,24.62-32.07,24.62
						C32.54,77.32,17.4,69.28,17.4,52.7c0-16.57,14.61-30.02,32.6-30.02C56.3,22.68,62.18,24.32,67.17,27.18z"/>
				</defs>
				<clipPath id="SVGID_2_">
					<use xlink:href="#SVGID_1_"  overflow="visible"/>
				</clipPath>
				<g clip-path="url(#SVGID_2_)">
					<g>
						<g>
							<path id="b1rGP6W9IA_1_" fill-opacity="0" d="M67.17,27.18c9.26,5.3,15.43,14.75,15.43,25.52
								c0,16.58-14.08,24.62-32.07,24.62C32.54,77.32,17.4,69.28,17.4,52.7c0-16.57,14.61-30.02,32.6-30.02
								C56.3,22.68,62.18,24.32,67.17,27.18z"/>
							<path d="M50.529,84.32C26.527,84.32,10.4,71.613,10.4,52.7c0-20.413,17.765-37.02,39.6-37.02
								c7.316,0,14.457,1.876,20.651,5.427C82.515,27.897,89.6,39.708,89.6,52.7C89.6,71.908,74.264,84.32,50.529,84.32z M50,29.68
								c-14.116,0-25.6,10.327-25.6,23.02c0,16.771,21.766,17.62,26.129,17.62c7.538,0,25.07-1.717,25.07-17.62
								c0-7.908-4.451-15.177-11.907-19.445C59.61,30.916,54.877,29.68,50,29.68z"/>
						</g>
					</g>
				</g>
			</g>
		</g>
		<g>
			<g>
				<path id="b1AO7QlPH2" d="M52.99,35.09l1.449,0.23l1.41,0.32l1.36,0.41l1.319,0.49l1.281,0.57l1.209,0.64l1.16,0.71l1.1,0.78
					l1.041,0.85l0.959,0.9l0.891,0.96l0.82,1.02l0.73,1.061l0.649,1.11l0.56,1.16l0.461,1.2l0.369,1.23l0.27,1.26l0.171,1.3
					l0.05,1.319L70.2,53.9l-0.171,1.22l-0.27,1.13l-0.369,1.061L68.93,58.3l-0.56,0.91l-0.649,0.84l-0.73,0.78l-0.82,0.7
					l-0.891,0.649l-0.959,0.58l-1.041,0.521l-1.1,0.46l-1.16,0.41l-1.209,0.35l-1.281,0.29l-1.319,0.25l-1.36,0.2l-1.41,0.15
					l-1.449,0.1l-1.48,0.06L50,65.57l-1.51-0.021l-1.48-0.06l-1.45-0.1l-1.41-0.15l-1.36-0.2l-1.32-0.25l-1.28-0.29l-1.21-0.35
					l-1.16-0.41l-1.1-0.46l-1.04-0.521l-0.96-0.58l-0.89-0.649l-0.82-0.7l-0.73-0.78l-0.65-0.84l-0.56-0.91l-0.46-0.989l-0.37-1.061
					l-0.27-1.13L29.8,53.9l-0.05-1.291l0.05-1.319l0.17-1.3l0.27-1.26l0.37-1.23l0.46-1.2l0.51-1.05l0,0l0.94,0.94l1.09,0.77
					l1.22,0.58l1.32,0.36l1.4,0.13l1.4-0.13l1.32-0.36l1.21-0.58l1.09-0.77l0.94-0.94l0.77-1.09l0.58-1.21l0.36-1.32l0.13-1.4
					l-0.13-1.4l-0.36-1.32l-0.58-1.22l-0.4-0.56l0.27-0.09l1.41-0.32l1.45-0.23l1.48-0.15L50,34.89l1.51,0.05L52.99,35.09z"/>
			</g>
		</g>
		<g>
			<g>
				<path id="b5PK71rE7N" d="M43.15,40.23c0,3.09-2.51,5.6-5.6,5.6c-3.1,0-5.61-2.51-5.61-5.6c0-3.1,2.51-5.61,5.61-5.61
					C40.64,34.62,43.15,37.13,43.15,40.23z"/>
			</g>
		</g>
	</g>
</g>
</svg>
